<svg width="58" height="63" viewBox="0 0 58 63" fill="none" xmlns="http://www.w3.org/2000/svg">
<path d="M10.267 40.9529H9.65891V40.3447C9.65891 39.8097 9.22515 39.3759 8.69016 39.3759C8.15517 39.3759 7.72141 39.8097 7.72141 40.3447V40.9529H7.11303C6.57804 40.9529 6.14428 41.3867 6.14428 41.9217C6.14428 42.4567 6.57804 42.8904 7.11303 42.8904H7.72129V43.4987C7.72129 44.0337 8.15505 44.4674 8.69004 44.4674C9.22503 44.4674 9.65879 44.0337 9.65879 43.4987V42.8904H10.2669C10.8019 42.8904 11.2357 42.4567 11.2357 41.9217C11.2357 41.3867 10.802 40.9529 10.267 40.9529Z" fill="white"/>
<path d="M37.5392 44.6111H36.9311V44.0029C36.9311 43.4679 36.4973 43.0342 35.9623 43.0342C35.4273 43.0342 34.9936 43.4679 34.9936 44.0029V44.6111H34.3853C33.8503 44.6111 33.4165 45.0448 33.4165 45.5798C33.4165 46.1148 33.8503 46.5486 34.3853 46.5486H34.9936V47.1568C34.9936 47.6918 35.4273 48.1256 35.9623 48.1256C36.4973 48.1256 36.9311 47.6918 36.9311 47.1568V46.5486H37.5392C38.0742 46.5486 38.5079 46.1148 38.5079 45.5798C38.5079 45.0448 38.0742 44.6111 37.5392 44.6111Z" fill="white"/>
<path d="M22.118 25.2422H22.7262C23.2612 25.2422 23.695 25.676 23.695 26.211C23.695 26.746 23.2612 27.1797 22.7262 27.1797H22.118V27.788C22.118 28.323 21.6842 28.7567 21.1492 28.7567C20.6143 28.7567 20.1805 28.323 20.1805 27.788V27.1797H19.5724C19.0374 27.1797 18.6036 26.746 18.6036 26.211C18.6036 25.676 19.0374 25.2422 19.5724 25.2422H20.1805V24.634C20.1805 24.099 20.6143 23.6652 21.1492 23.6652C21.6842 23.6652 22.118 24.099 22.118 24.634V25.2422Z" fill="white"/>
<path d="M40.9644 29.7587C40.4412 29.6521 39.9285 29.9892 39.8212 30.5136C39.7139 31.0377 40.0519 31.5497 40.5761 31.6568C44.032 32.364 46.5404 35.4422 46.5404 38.9761C46.5404 39.5111 46.9742 39.9448 47.5092 39.9448C48.0442 39.9448 48.4779 39.5111 48.4779 38.9761C48.4779 34.5261 45.318 30.6496 40.9644 29.7587Z" fill="white"/>
<path fill-rule="evenodd" clip-rule="evenodd" d="M57.1595 8.98285C57.1739 9.12368 57.5003 12.4793 56.4287 16.5964C55.1338 21.5725 52.3371 25.5014 48.3006 28.0454C51.1538 30.4144 52.9738 33.9867 52.9738 37.9762C52.9738 43.5935 49.4012 48.3388 44.4097 50.1282C44.2937 57.1443 38.5512 62.8164 31.5079 62.8164C27.082 62.8164 23.1698 60.5764 20.8442 57.1708C18.7269 58.5887 16.2752 59.3332 13.691 59.3332C6.57551 59.3332 0.786621 53.5443 0.786621 46.4287C0.786621 39.8331 5.71187 34.4565 11.9986 33.635C10.6839 28.3633 12.7902 22.9048 17.2325 19.8559C15.3995 16.285 14.7091 12.0735 15.2363 7.61098C15.6629 3.9996 16.7227 1.50652 16.7676 1.40226C16.9203 1.04733 17.2693 0.817133 17.6556 0.816406C26.6099 0.816406 34.3118 6.93067 36.8871 14.7906C37.3404 14.2132 37.8191 13.6694 38.3218 13.1638L38.3226 13.1606C40.0757 11.3026 41.8201 10.3894 42.9692 9.84052C46.6663 8.03528 51.1565 7.4566 56.3194 8.12066C56.7657 8.17806 57.1138 8.53529 57.1595 8.98285ZM40.2311 14.0095C40.2086 14.0352 40.1846 14.0599 40.1589 14.0836C39.1799 14.987 38.2891 16.0492 37.5069 17.2446C38.0146 20.073 37.8115 22.8485 37.0129 25.4361C37.0219 25.4339 37.0954 25.4172 37.1615 25.4022C37.2169 25.3897 37.2671 25.3783 37.2701 25.3776C38.0466 23.8563 42.3511 15.9955 49.6152 13.3955C50.1188 13.2153 50.6735 13.4775 50.8538 13.9811C51.034 14.485 50.7718 15.0395 50.2682 15.2198C44.8861 17.1463 41.171 22.5239 39.6568 25.0786C42.1354 25.0007 44.5257 25.6336 46.5667 26.8253C50.6087 24.5495 53.2945 20.9467 54.5535 16.1085C55.2478 13.4407 55.3018 11.1053 55.2723 9.94942C50.8816 9.49447 47.0704 10.0248 43.9283 11.5288C42.9659 12.0087 41.4361 12.9481 40.2311 14.0095ZM17.1535 7.89821C16.6825 11.9737 17.2723 15.6627 18.9069 18.8788C21.2076 17.7681 23.7425 17.3946 26.1592 17.7016C25.8057 12.0741 22.1195 8.70603 22.0804 8.67103C21.6816 8.31429 21.6478 7.7018 22.0046 7.30316C22.3613 6.9044 22.9738 6.87037 23.3724 7.22735C23.5623 7.39725 27.9242 11.3826 28.1171 18.1079C31.2481 19.0152 33.8452 21.063 35.4744 23.6806C37.7536 13.4467 29.0871 3.15788 18.3216 2.76529C18.0019 3.67143 17.4261 5.54003 17.1535 7.89821ZM13.6911 57.3958C15.9281 57.3958 18.0483 56.7398 19.8699 55.4911C17.9029 51.3871 18.2653 46.5765 20.7164 42.8368C17.009 41.6968 14.0797 38.9766 12.622 35.5141C7.12201 36.0447 2.72424 40.6783 2.72424 46.4288C2.72424 52.476 7.64392 57.3958 13.6911 57.3958ZM20.9857 53.0047C22.3706 57.7013 26.6862 60.8789 31.5079 60.8789C37.5552 60.8789 42.4749 55.9591 42.4749 49.9119C42.4749 44.1116 37.9396 39.3295 32.2076 38.9671L32.2056 38.9682C32.0052 38.9682 31.8034 38.964 31.5986 38.9599C29.9775 38.9267 28.1641 38.8895 25.2918 40.8646C25.2613 40.8926 25.2286 40.9191 25.1938 40.9436C21.4405 43.5924 19.6355 48.3992 20.9857 53.0047ZM32.0498 36.9984C32.2285 37.0124 32.3908 37.0295 32.5377 37.0494C32.7815 37.0687 33.0225 37.0943 33.2544 37.1254C36.0242 33.4741 36.2372 28.4683 33.7548 24.5978C30.9401 20.212 25.3885 18.3689 20.5038 20.2956C15.1305 22.3924 12.1627 28.4965 14.1827 34.1767C15.4066 37.6181 18.3222 40.3138 22.0081 41.1791C22.3235 40.8362 22.6696 40.4992 23.0357 40.1799C23.0455 40.1634 23.0554 40.1468 23.0653 40.1302C26.3105 37.3243 28.9779 36.7586 32.0498 36.9984ZM44.2848 48.1017C48.2587 46.438 51.0363 42.5405 51.0363 37.9762C51.0363 30.6992 44.0348 25.4217 37.0524 27.4314C37.9241 31.0032 37.2074 34.6806 35.3066 37.5776C40.1143 39.0673 43.5918 43.186 44.2848 48.1017Z" fill="white"/>
</svg>
