<svg width="66" height="65" viewBox="0 0 66 65" fill="none" xmlns="http://www.w3.org/2000/svg">
<path d="M42.1749 28.8281C41.2226 28.2531 40.1312 27.9374 39.0186 27.9153C37.906 27.8935 36.803 28.1659 35.8287 28.7029C35.2147 29.0414 34.9914 29.8136 35.3298 30.4277C35.4993 30.7348 35.7768 30.9441 36.089 31.0344C36.4012 31.1247 36.7476 31.0957 37.0546 30.9266C37.6392 30.6042 38.3012 30.4408 38.9685 30.4538C39.636 30.4672 40.291 30.6567 40.8626 31.0016C41.4626 31.3643 42.2432 31.1712 42.6055 30.571C42.9679 29.9708 42.7752 29.1906 42.1749 28.8281Z" fill="#5D2524"/>
<path d="M28.9074 28.8281C27.955 28.2531 26.8636 27.9374 25.7511 27.9153C24.6384 27.8935 23.5354 28.1659 22.5611 28.7029C21.9471 29.0414 21.7238 29.8136 22.0623 30.4277C22.2317 30.7348 22.5092 30.9441 22.8214 31.0344C23.1336 31.1247 23.48 31.0957 23.7871 30.9266C24.3717 30.6042 25.0336 30.4408 25.7009 30.4538C26.3684 30.4672 27.0234 30.6567 27.595 31.0016C28.195 31.3643 28.9756 31.1712 29.3379 30.571C29.7004 29.9708 29.5076 29.1906 28.9074 28.8281Z" fill="#5D2524"/>
<path d="M36.207 39.8662C35.8565 40.4735 35.0806 40.6817 34.4728 40.3311C33.8943 39.9971 33.2358 39.8207 32.5684 39.8207C31.901 39.8207 31.2426 39.9971 30.6641 40.331C30.0569 40.6819 29.2805 40.4736 28.9301 39.8662C28.5794 39.259 28.7876 38.4827 29.3948 38.1322C30.3587 37.5757 31.4559 37.2817 32.5684 37.2817C33.6808 37.2817 34.7782 37.5757 35.7421 38.1321C36.3493 38.4826 36.5575 39.259 36.207 39.8662Z" fill="#5D2524"/>
<path d="M46.29 40.8986C47.8251 38.6068 48.8021 35.9114 49.024 33.0078H49.0723C51.8723 33.0078 54.1504 30.7298 54.1504 27.9297C54.1504 25.1296 51.8725 22.8516 49.0724 22.8516V20.7353C53.1757 19.7703 56.1451 16.1036 56.1451 11.7814C56.1451 6.70808 52.0176 2.5807 46.9443 2.5807C44.7298 2.5807 42.6456 3.35575 41.0016 4.75325C39.2396 1.84933 36.052 0 32.5685 0C29.0852 0 25.8975 1.84933 24.1354 4.75338C22.4913 3.35588 20.4073 2.58083 18.1927 2.58083C13.1193 2.58083 8.99177 6.7082 8.99177 11.7815C8.99177 16.1038 11.9613 19.7705 16.0646 20.7354V22.8516C13.2645 22.8516 10.9865 25.1296 10.9865 27.9297C10.9865 30.7298 13.2645 33.0078 16.0646 33.0078H16.1128C16.3347 35.9114 17.3118 38.6068 18.8468 40.8985C10.8297 45.7338 5.9082 54.3521 5.9082 63.7305C5.9082 64.4315 6.4767 65 7.17773 65H57.9592C58.6603 65 59.2288 64.4315 59.2288 63.7305C59.2288 54.3522 54.3072 45.7341 46.29 40.8986ZM16.0646 30.4688C14.6645 30.4688 13.5256 29.3297 13.5256 27.9297C13.5256 26.5296 14.6645 25.3906 16.0646 25.3906V30.4688ZM13.5255 62.4609H8.48078C8.74269 57.4802 10.5388 52.7882 13.5255 48.9534V62.4609ZM51.6113 27.9297C51.6113 29.3297 50.4724 30.4688 49.0724 30.4688V25.3906C50.4724 25.3906 51.6113 26.5296 51.6113 27.9297ZM17.4701 18.4041C14.0842 18.0395 11.531 15.1924 11.531 11.7814C11.531 8.10812 14.5194 5.11977 18.1928 5.11977C20.0655 5.11977 21.8081 5.8877 23.0664 7.24356C22.8322 8.09377 22.7124 8.96937 22.7124 9.85626C22.7124 10.2254 22.7334 10.5987 22.7749 10.9656C22.8483 11.6137 23.3975 12.0924 24.0348 12.0924C24.0826 12.0924 24.1308 12.0897 24.1793 12.0843C24.8759 12.0054 25.3768 11.3768 25.298 10.6799C25.2672 10.4075 25.2515 10.1304 25.2515 9.85626C25.2515 9.01088 25.3964 8.17896 25.682 7.38347C25.6848 7.37534 25.6867 7.36709 25.6895 7.35896C26.7364 4.4751 29.4975 2.53906 32.5685 2.53906C35.6482 2.53906 38.4165 4.48563 39.457 7.38296C39.6138 7.81993 39.9968 8.13643 40.4555 8.20815C40.9157 8.28026 41.3756 8.09542 41.6585 7.72738C42.9317 6.07014 44.8583 5.11977 46.9444 5.11977C50.6177 5.11977 53.6062 8.10812 53.6062 11.7814C53.6062 15.1924 51.053 18.0395 47.6672 18.4041C47.0224 18.4736 46.5335 19.0178 46.5335 19.6663V22.8516H18.6038V19.6663C18.6038 19.0178 18.1149 18.4735 17.4701 18.4041ZM18.6036 31.7383V25.3906H46.5333V31.7383C46.5333 34.9954 45.4122 37.9954 43.536 40.3735C43.4592 40.4468 43.3911 40.5309 43.3331 40.625C40.7695 43.7247 36.8957 45.7031 32.5682 45.7031C28.2407 45.7031 24.3667 43.7243 21.8032 40.6242C21.7455 40.5308 21.6778 40.4469 21.6013 40.3739C19.7249 37.9959 18.6036 34.9956 18.6036 31.7383ZM49.0725 62.4609H16.0646V46.1713C17.3777 44.9396 18.8391 43.8434 20.4324 42.9104C23.1817 45.8944 27.0138 47.8664 31.2993 48.1938L31.2995 50.2386C31.2996 50.9397 31.868 51.5079 32.569 51.5079C33.27 51.5078 33.8387 50.9394 33.8385 50.2381L33.8384 48.1937C38.1235 47.8662 41.9554 45.8943 44.7046 42.9103C46.2978 43.8434 47.7594 44.9396 49.0725 46.1715V62.4609ZM51.6116 62.4609V48.9536C54.5982 52.7884 56.3943 57.4802 56.6562 62.4609H51.6116Z" fill="#5D2524"/>
<path d="M32.5684 54C31.8673 54 31.2988 54.5685 31.2988 55.2695V55.3298C31.2988 56.031 31.8673 56.5994 32.5684 56.5994C33.2694 56.5994 33.8379 56.0309 33.8379 55.3298V55.2695C33.8379 54.5685 33.2694 54 32.5684 54Z" fill="#5D2524"/>
<path d="M26.8262 14.5449L26.8021 14.5027C26.4536 13.8943 25.6778 13.6833 25.0695 14.0319C24.461 14.3804 24.2503 15.1561 24.5988 15.7644L24.6216 15.8046C24.856 16.2146 25.2843 16.4445 25.725 16.4445C25.9386 16.4445 26.1551 16.3906 26.3537 16.2771C26.9625 15.9292 27.174 15.1537 26.8262 14.5449Z" fill="#5D2524"/>
<path d="M41.5186 50.3195C38.9635 50.3195 36.8848 52.3982 36.8848 54.9532C36.8848 57.5083 38.9635 59.587 41.5186 59.587C44.0736 59.587 46.1523 57.5083 46.1523 54.9532C46.1523 52.3982 44.0736 50.3195 41.5186 50.3195ZM41.5186 57.048C40.3635 57.048 39.4238 56.1083 39.4238 54.9532C39.4238 53.7984 40.3635 52.8585 41.5186 52.8585C42.6736 52.8585 43.6133 53.7982 43.6133 54.9532C43.6133 56.1083 42.6736 57.048 41.5186 57.048Z" fill="#5D2524"/>
</svg>
