<svg width="52" height="61" viewBox="0 0 52 61" fill="none" xmlns="http://www.w3.org/2000/svg">
<path d="M6.3305 14.8827C6.38997 14.3793 6.81669 14 7.32359 14H44.6764C45.1833 14 45.61 14.3793 45.6695 14.8827L50.868 58.8827C50.9382 59.4773 50.4737 60 49.8749 60H2.1251C1.52631 60 1.06175 59.4773 1.13201 58.8827L6.3305 14.8827Z" stroke="white" stroke-width="2"/>
<path d="M45.4348 14L40 60" stroke="white" stroke-width="2"/>
<path d="M23.4718 32.9016C24.0554 32.2761 24.8183 31.5127 25.6347 30.9476L25.6355 30.9471C26.2719 30.5075 27.0673 30.0984 27.9261 30.0762C28.8766 30.0516 29.7191 30.5027 30.3439 31.4063L30.3456 31.4089C30.7948 32.0628 31.0379 32.7766 30.8929 33.504C30.7494 34.2245 30.2713 34.7236 29.792 35.0543L29.7908 35.0552C29.1501 35.4959 28.3242 35.7803 27.5805 35.9784C27.3783 36.0322 27.1751 36.0814 26.9748 36.1266C27.9036 36.5786 28.9778 37.1829 29.7728 37.8997C30.2585 38.3369 30.7422 38.9096 30.9249 39.6122C31.1295 40.3992 30.9138 41.1751 30.3241 41.8314L30.3234 41.8321C30.0514 42.1343 29.725 42.3727 29.34 42.5047C28.9515 42.6379 28.564 42.6418 28.2053 42.5652C27.5304 42.4209 26.9405 41.9879 26.4732 41.5653L23.4718 32.9016ZM23.4718 32.9016C23.4578 32.1678 23.4291 31.2414 23.2662 30.3774C22.9574 28.7215 22.1756 27.5547 21.0307 27.145M23.4718 32.9016L21.0307 27.145M21.0307 27.145C20.2732 26.8731 19.4877 27 18.8669 27.3859L19.3948 28.2352M21.0307 27.145L20.18 33.0765C18.7021 31.6969 18.3488 30.3819 18.5703 29.4322C18.6965 28.8955 19.005 28.4769 19.3948 28.2352M19.3948 28.2352L18.8679 27.3853C18.2385 27.7754 17.7798 28.4255 17.5969 29.2033L17.5965 29.205C17.2999 30.4762 17.7481 31.9473 19.0383 33.3461C18.2683 33.2217 17.4108 33.1857 16.5625 33.3688C15.7582 33.5412 15.1144 33.9645 14.6744 34.5134L14.6727 34.5155C14.1892 35.1221 13.9484 35.8825 14.0092 36.6244M19.3948 28.2352L14.0092 36.6244M14.0092 36.6244C14.0767 37.4583 14.4442 38.138 15.117 38.5356C15.721 38.8925 16.4242 38.931 17.0081 38.8835L17.0082 38.8835C17.8798 38.8124 18.8354 38.5213 19.6102 38.246C19.5984 38.2674 19.5865 38.289 19.5745 38.3108C19.0827 39.2018 18.416 40.4097 18.1298 41.5094L14.0092 36.6244ZM20.6283 44.9967C20.3538 45.0113 20.0919 44.9764 19.8572 44.9165L19.8517 44.9151C19.0373 44.7025 18.4212 44.223 18.1413 43.4797C17.8903 42.8129 17.9765 42.0984 18.1298 41.5097L20.6283 44.9967ZM20.6283 44.9967C21.2124 44.9664 21.7721 44.7233 22.2283 44.2662L22.2316 44.2628C22.6878 43.8015 23.0107 43.1621 23.2142 42.3829C23.4417 41.5142 23.5321 40.4187 23.4615 39.0773C23.4441 38.7298 23.4442 38.4253 23.4567 38.1703C23.4758 38.19 23.4952 38.2103 23.5148 38.2311C23.8475 38.5826 24.2026 39.0122 24.5968 39.4899L24.602 39.4962C25.1659 40.1819 25.8148 40.9709 26.4725 41.5647L20.6283 44.9967Z" stroke="white" stroke-width="2"/>
<path d="M34 14V9.5C34 4.80558 30.1944 1 25.5 1V1C20.8056 1 17 4.80558 17 9.5V14" stroke="white" stroke-width="2"/>
</svg>
