<svg width="26" height="24" viewBox="0 0 26 24" fill="none" xmlns="http://www.w3.org/2000/svg">
<path d="M10 22.8164C10.5523 22.8164 11 22.3687 11 21.8164C11 21.2641 10.5523 20.8164 10 20.8164C9.44772 20.8164 9 21.2641 9 21.8164C9 22.3687 9.44772 22.8164 10 22.8164Z" stroke="#FCF18C" stroke-width="2" stroke-linecap="round" stroke-linejoin="round"/>
<path d="M21 22.8164C21.5523 22.8164 22 22.3687 22 21.8164C22 21.2641 21.5523 20.8164 21 20.8164C20.4477 20.8164 20 21.2641 20 21.8164C20 22.3687 20.4477 22.8164 21 22.8164Z" stroke="#FCF18C" stroke-width="2" stroke-linecap="round" stroke-linejoin="round"/>
<path d="M2 1.81641H6L8.68 15.2064C8.77144 15.6668 9.02191 16.0804 9.38755 16.3747C9.75318 16.669 10.2107 16.8254 10.68 16.8164H20.4C20.8693 16.8254 21.3268 16.669 21.6925 16.3747C22.0581 16.0804 22.3086 15.6668 22.4 15.2064L24 6.81641H7" stroke="#FCF18C" stroke-width="2.5" stroke-linecap="round" stroke-linejoin="round"/>
</svg>
