<svg width="52" height="51" viewBox="0 0 52 51" fill="none" xmlns="http://www.w3.org/2000/svg">
<path d="M26 50.8164C11.9379 50.8164 0.5 39.6022 0.5 25.8177C0.5 12.0306 11.9379 0.816406 26 0.816406C40.0595 0.816406 51.5 12.0306 51.5 25.8177C51.5 39.6022 40.0595 50.8164 26 50.8164ZM26 2.84859C13.0827 2.84859 2.57272 13.153 2.57272 25.8177C2.57272 38.4823 13.0827 48.7868 26 48.7868C38.9173 48.7868 49.4273 38.4823 49.4273 25.8177C49.4273 13.153 38.9173 2.84859 26 2.84859Z" fill="#4ABBC1"/>
<path d="M26.0526 33.0594C21.9516 33.0594 18.6138 29.7869 18.6138 25.7661C18.6138 21.7453 21.9489 18.4728 26.0526 18.4728C30.1562 18.4728 33.4914 21.7453 33.4914 25.7661C33.4914 29.7869 30.1536 33.0594 26.0526 33.0594ZM26.0526 20.505C23.0938 20.505 20.6865 22.8652 20.6865 25.7661C20.6865 28.667 23.0938 31.0272 26.0526 31.0272C29.0114 31.0272 31.4187 28.667 31.4187 25.7661C31.4187 22.8652 29.0114 20.505 26.0526 20.505Z" fill="#4ABBC1"/>
<path d="M50.3028 24.2162C49.7643 24.2162 49.3095 23.8087 49.2703 23.2757C49.0717 20.6336 47.5269 19.5239 45.7417 18.2349C44.6361 17.4379 43.4939 16.6153 42.6392 15.3929C41.5414 13.822 41.1781 12.0999 40.8592 10.5803C40.5299 9.00935 40.2423 7.6537 39.2491 6.81315C38.8152 6.44669 38.7682 5.80347 39.1419 5.38063C39.5157 4.95523 40.1718 4.9091 40.603 5.27556C42.1295 6.5697 42.5163 8.39944 42.8875 10.1702C43.1802 11.5669 43.486 13.0097 44.3486 14.2449C45.0046 15.1828 45.9587 15.8696 46.9676 16.5974C48.8887 17.9812 51.0686 19.5496 51.3378 23.1245C51.3796 23.6831 50.951 24.1726 50.3812 24.2136C50.355 24.2162 50.3289 24.2162 50.3028 24.2162Z" fill="#4ABBC1"/>
<path d="M27.4874 6.55665C27.409 6.55665 27.3306 6.55665 27.2522 6.55409C25.3101 6.49258 23.6791 5.76222 22.2416 5.11643C20.7543 4.45014 19.471 3.87355 18.1902 4.16056C17.6309 4.28613 17.0767 3.9453 16.9487 3.39689C16.8206 2.85105 17.1682 2.3052 17.7276 2.17963C19.6931 1.73629 21.4287 2.51534 23.1041 3.2662C24.4267 3.85817 25.7937 4.47321 27.3175 4.51934C28.478 4.55521 29.6046 4.20669 30.8017 3.84023C33.0757 3.13806 35.6555 2.34364 38.7554 4.24513C39.2416 4.5424 39.3879 5.17025 39.0847 5.64434C38.7815 6.121 38.1412 6.2645 37.6576 5.96724C35.3679 4.5629 33.5409 5.12669 31.4264 5.7776C30.1822 6.162 28.9041 6.55665 27.4874 6.55665Z" fill="#4ABBC1"/>
<path d="M2.0029 21.7274C1.8905 21.7274 1.77811 21.7094 1.66572 21.671C1.12467 21.4916 0.834538 20.9125 1.02273 20.382C1.67879 18.5113 3.26796 17.4785 4.80486 16.4791C6.01765 15.6923 7.26965 14.8774 8.11652 13.632C8.75951 12.6863 9.05486 11.5613 9.3659 10.3723C9.95923 8.10687 10.6336 5.54165 13.9165 3.96562C14.4314 3.7196 15.0509 3.92718 15.3044 4.43202C15.5553 4.93686 15.3436 5.54421 14.8313 5.79279C12.4057 6.9588 11.93 8.77572 11.3759 10.8822C11.0335 12.1841 10.6806 13.5295 9.84161 14.7621C8.76473 16.3484 7.26965 17.3196 5.9497 18.1755C4.58792 19.0622 3.40911 19.8259 2.98306 21.0432C2.83408 21.4634 2.43155 21.7274 2.0029 21.7274Z" fill="#4ABBC1"/>
<path d="M11.5351 46.2859C11.2868 46.2859 11.0358 46.1988 10.8372 46.022C9.34472 44.692 9.00755 42.852 8.67821 41.0709C8.41945 39.6692 8.15284 38.2187 7.32427 36.963C6.69435 36.0097 5.75862 35.2973 4.76539 34.5464C2.88085 33.1139 0.742785 31.4917 0.565048 27.9117C0.536297 27.3505 0.978025 26.8738 1.55044 26.8482C2.11763 26.8251 2.60902 27.2531 2.63516 27.8143C2.76585 30.459 4.27922 31.6096 6.03307 32.9396C7.11779 33.7622 8.2391 34.613 9.05982 35.8559C10.1184 37.455 10.4347 39.1848 10.717 40.7096C11.0071 42.2882 11.258 43.649 12.2303 44.5151C12.6538 44.8918 12.6851 45.5351 12.3009 45.9502C12.097 46.1757 11.8174 46.2859 11.5351 46.2859Z" fill="#4ABBC1"/>
<path d="M18.1169 49.11C17.0321 49.11 15.8586 48.8639 14.57 48.1976C14.0629 47.9363 13.8695 47.3212 14.1361 46.8241C14.4027 46.3269 15.03 46.1373 15.5371 46.3987C17.926 47.6339 19.706 46.9419 21.7657 46.1398C23.0412 45.6452 24.3586 45.1301 25.8667 45.0686C27.8087 44.9892 29.4894 45.6017 30.9714 46.1424C32.5031 46.7011 33.8283 47.1828 35.0829 46.8036C35.6292 46.637 36.2094 46.9394 36.3793 47.475C36.5492 48.0106 36.2408 48.5795 35.6945 48.7461C33.7655 49.3278 31.9777 48.6769 30.25 48.0465C28.8882 47.5493 27.4768 47.0342 25.953 47.0983C24.795 47.1444 23.6947 47.5724 22.5289 48.026C21.1959 48.5513 19.7557 49.11 18.1169 49.11Z" fill="#4ABBC1"/>
<path d="M39.0163 47.126C38.6583 47.126 38.3106 46.944 38.1198 46.6211C37.8323 46.1368 37.9996 45.5141 38.4962 45.2322C40.8329 43.9022 41.1779 42.057 41.5778 39.9172C41.8262 38.5949 42.0797 37.229 42.8298 35.94C43.7917 34.2845 45.2136 33.2133 46.4656 32.2677C47.762 31.2913 48.8807 30.4456 49.2179 29.2027C49.3643 28.6595 49.9341 28.3366 50.4856 28.4826C51.0397 28.6261 51.3664 29.1848 51.2201 29.7255C50.6999 31.6373 49.1892 32.7777 47.7281 33.8796C46.5754 34.7483 45.3835 35.6478 44.6281 36.9471C44.0531 37.9363 43.8414 39.0767 43.614 40.2837C43.1827 42.5824 42.6965 45.1886 39.5339 46.9902C39.3744 47.0824 39.1941 47.126 39.0163 47.126Z" fill="#4ABBC1"/>
<path d="M33.0942 16.3901C32.859 16.3901 32.6211 16.3106 32.4251 16.1492C31.9886 15.7879 31.9337 15.1446 32.3022 14.7167L34.4743 12.2001C34.8428 11.7722 35.4989 11.7184 35.9354 12.0797C36.3719 12.441 36.4268 13.0843 36.0582 13.5122L33.8862 16.0288C33.6823 16.2671 33.3896 16.3901 33.0942 16.3901Z" fill="#4ABBC1"/>
<path d="M38.7214 24.8078C38.4862 24.8078 38.2483 24.7284 38.0523 24.5669C37.6158 24.2056 37.5609 23.5624 37.9294 23.1344L40.1015 20.6179C40.47 20.1899 41.1261 20.1361 41.5626 20.4974C41.9991 20.8588 42.054 21.502 41.6854 21.9299L39.5134 24.4465C39.3069 24.6848 39.0142 24.8078 38.7214 24.8078Z" fill="#4ABBC1"/>
<path d="M25.6916 13.9221C25.4564 13.9221 25.2185 13.8426 25.0225 13.6812C24.586 13.3198 24.5311 12.6766 24.8997 12.2487L27.0717 9.73212C27.4402 9.30416 28.0963 9.25034 28.5328 9.61168C28.9693 9.97301 29.0242 10.6162 28.6556 11.0442L26.4836 13.5607C26.2797 13.7991 25.987 13.9221 25.6916 13.9221Z" fill="#4ABBC1"/>
<path d="M17.8454 13.9221C17.6102 13.9221 17.3723 13.8426 17.1763 13.6812C16.7398 13.3198 16.6849 12.6766 17.0535 12.2487L19.2255 9.73212C19.5941 9.30416 20.2501 9.25034 20.6866 9.61168C21.1231 9.97301 21.178 10.6162 20.8095 11.0442L18.6374 13.5607C18.4335 13.7991 18.1408 13.9221 17.8454 13.9221Z" fill="#4ABBC1"/>
<path d="M12.811 21.3231C12.5758 21.3231 12.3379 21.2436 12.1419 21.0822C11.7054 20.7208 11.6505 20.0776 12.019 19.6497L14.1911 17.1331C14.5596 16.7052 15.2157 16.6513 15.6522 17.0127C16.0887 17.374 16.1436 18.0172 15.775 18.4452L13.603 20.9617C13.3991 21.2026 13.1064 21.3231 12.811 21.3231Z" fill="#4ABBC1"/>
<path d="M11.0364 29.3082C10.8011 29.3082 10.5633 29.2287 10.3672 29.0673C9.93073 28.7059 9.87584 28.0627 10.2444 27.6348L12.4164 25.1182C12.785 24.6903 13.441 24.6365 13.8775 24.9978C14.314 25.3591 14.3689 26.0023 14.0004 26.4303L11.8283 28.9468C11.6218 29.1852 11.3291 29.3082 11.0364 29.3082Z" fill="#4ABBC1"/>
<path d="M13.8489 37.5803C13.6136 37.5803 13.3758 37.5008 13.1797 37.3394C12.7432 36.9781 12.6883 36.3348 13.0569 35.9069L15.2289 33.3903C15.5975 32.9624 16.2535 32.9085 16.69 33.2699C17.1265 33.6312 17.1814 34.2744 16.8129 34.7024L14.6408 37.219C14.4343 37.4573 14.1442 37.5803 13.8489 37.5803Z" fill="#4ABBC1"/>
<path d="M21.3996 41.0657C21.1644 41.0657 20.9265 40.9863 20.7305 40.8248C20.294 40.4635 20.2391 39.8203 20.6077 39.3923L22.7797 36.8758C23.1483 36.4478 23.8043 36.394 24.2408 36.7554C24.6773 37.1167 24.7322 37.7599 24.3637 38.1879L22.1916 40.7044C21.9851 40.9427 21.6924 41.0657 21.3996 41.0657Z" fill="#4ABBC1"/>
<path d="M30.7258 41.0657C30.4906 41.0657 30.2527 40.9863 30.0567 40.8248C29.6202 40.4635 29.5653 39.8203 29.9338 39.3923L32.1059 36.8758C32.4744 36.4478 33.1305 36.394 33.567 36.7554C34.0035 37.1167 34.0584 37.7599 33.6898 38.1879L31.5178 40.7044C31.3113 40.9427 31.0212 41.0657 30.7258 41.0657Z" fill="#4ABBC1"/>
<path d="M37.8332 35.4047C37.598 35.4047 37.3601 35.3253 37.1641 35.1638C36.7276 34.8025 36.6727 34.1593 37.0413 33.7313L39.2133 31.2148C39.5818 30.7868 40.2379 30.733 40.6744 31.0943C41.1109 31.4557 41.1658 32.0989 40.7973 32.5269L38.6252 35.0434C38.4187 35.2817 38.126 35.4047 37.8332 35.4047Z" fill="#4ABBC1"/>
</svg>
