<svg width="67" height="59" viewBox="0 0 67 59" fill="none" xmlns="http://www.w3.org/2000/svg">
<path d="M58.8469 55.8911C58.3103 55.8911 57.8668 55.4574 57.8668 54.9208V42.2367C57.8668 37.8167 56.4507 36.2781 51.9939 36.2781H12.3955C9.05108 36.2781 8.61987 38.5199 8.61987 39.4607V44.2335C8.61987 44.7701 8.1764 45.2037 7.63983 45.2037C7.10326 45.2037 6.65979 44.7701 6.65979 44.2335V39.4607C6.65979 37.1184 8.2254 34.318 12.3955 34.318H51.9939C57.5336 34.318 59.8269 36.7313 59.8269 42.2367V54.9208C59.8269 55.4549 59.3834 55.8911 58.8469 55.8911Z" fill="#4ABBC1"/>
<path d="M7.63983 55.7512C7.10326 55.7512 6.65979 55.3175 6.65979 54.7809V41.7366C6.65979 41.2 7.10326 40.7664 7.63983 40.7664C8.1764 40.7664 8.61986 41.2 8.61986 41.7366V54.7809C8.61986 55.3175 8.1764 55.7512 7.63983 55.7512Z" fill="#4ABBC1"/>
<path d="M40.0546 46.0147C39.9076 46.0147 39.7581 46.0122 39.6087 46.0049C37.6633 45.9314 35.4803 44.8215 34.2381 43.3122C32.8366 44.9808 30.2591 46.0024 27.4538 46.0024C27.3999 46.0024 27.346 46.0024 27.2921 46.0024C25.2193 45.973 23.1612 45.0739 21.7842 43.5965C21.3555 43.1334 21.0027 42.6311 20.738 42.1019C19.0842 44.2188 16.2617 45.3997 13.1501 45.1057C12.5131 45.0445 11.9006 44.9367 11.3346 44.7798C10.8176 44.6377 10.5138 44.1036 10.6535 43.5867C10.7956 43.0697 11.3297 42.7634 11.8466 42.9055C12.3048 43.0305 12.8046 43.1211 13.3314 43.1701C16.5263 43.4715 19.3072 41.8299 20.0961 39.1789C20.1476 39.0025 20.2456 38.8506 20.3754 38.7355C20.6278 38.439 21.0345 38.3189 21.4143 38.4414C21.8357 38.5762 22.1126 38.9805 22.0856 39.4239C22.0268 40.4236 22.4262 41.4379 23.2053 42.2758C24.227 43.3735 25.7632 44.0424 27.3166 44.062C29.6441 44.0938 31.7365 43.3122 32.7852 42.021C32.9836 41.776 33.1331 41.5261 33.2335 41.2713C33.1257 40.6882 33.1649 40.1002 33.3511 39.5268C33.4859 39.1103 33.8828 38.8408 34.3214 38.858C34.7575 38.8776 35.1275 39.1887 35.223 39.615C35.348 40.1663 35.3529 40.7249 35.2475 41.2689C35.321 41.46 35.4264 41.656 35.5636 41.852C36.3893 43.0378 38.1974 44.0105 39.6822 44.0669C41.5492 44.1379 43.0609 43.6822 44.0483 42.7463C44.82 42.0161 45.2366 41.0042 45.2562 39.8209C45.2635 39.3382 45.6261 38.9339 46.1063 38.8727C46.5866 38.8114 47.0374 39.1152 47.1648 39.5807C48.1424 43.1677 51.2001 43.7361 52.9348 43.7582C53.6355 43.768 54.2921 43.6577 54.8752 43.4372C55.3775 43.2461 55.9386 43.4984 56.1272 44.0007C56.3183 44.503 56.066 45.0641 55.5637 45.2527C54.7503 45.5614 53.8585 45.7084 52.9103 45.7011C50.1539 45.6692 47.9072 44.5716 46.5106 42.6679C46.2215 43.2191 45.8442 43.719 45.3811 44.1575C44.0948 45.3752 42.2572 46.0147 40.0546 46.0147ZM20.3362 38.7869C20.3142 38.8163 20.2995 38.8384 20.297 38.8433C20.3093 38.8237 20.3215 38.8041 20.3362 38.7869Z" fill="#4ABBC1"/>
<path d="M58.9252 49.5062H7.71816C7.18159 49.5062 6.74792 49.0628 6.74792 48.5262C6.74792 47.9896 7.18159 47.5461 7.71816 47.5461H58.9252C59.4618 47.5461 59.8954 47.9896 59.8954 48.5262C59.8954 49.0628 59.4618 49.5062 58.9252 49.5062Z" fill="#4ABBC1"/>
<path d="M51.7416 33.5461C51.205 33.5461 50.7616 33.1124 50.7616 32.5758V23.5301C50.7616 21.4695 50.3622 20.0681 49.5635 19.2767C48.9632 18.6813 48.0934 18.3898 46.932 18.3898H21.3824C19.7825 18.3898 18.5697 18.7695 17.8004 19.5315C17.085 20.242 16.7052 21.3176 16.7052 22.697V25.4975C16.7052 26.0341 16.2617 26.4677 15.7252 26.4677C15.1886 26.4677 14.7451 26.0341 14.7451 25.4975V22.697C14.7451 20.7786 15.3258 19.2547 16.4259 18.1668C17.5578 17.0447 19.1969 16.4517 21.2746 16.4517C21.3089 16.4517 21.3579 16.4272 21.3922 16.4272H46.9247C46.9468 16.4272 46.9688 16.4272 46.9909 16.4272C48.6373 16.4272 49.98 16.9344 50.9404 17.8851C52.1263 19.0611 52.7216 20.9232 52.7216 23.5276V32.5734C52.7216 33.1124 52.2782 33.5461 51.7416 33.5461Z" fill="#4ABBC1"/>
<path d="M15.7252 33.4089C15.1886 33.4089 14.7451 32.9752 14.7451 32.4386V23.5546C14.7451 23.018 15.1886 22.5844 15.7252 22.5844C16.2617 22.5844 16.7052 23.018 16.7052 23.5546V32.4362C16.7052 32.9728 16.2617 33.4089 15.7252 33.4089Z" fill="#4ABBC1"/>
<path d="M38.4623 25.7157C38.3545 25.7157 38.2442 25.7133 38.134 25.7084C36.8011 25.6545 35.3237 24.9072 34.3755 23.8438C33.2705 25.0444 31.4648 25.7378 29.4974 25.7059C28.0126 25.6839 26.5744 25.0395 25.5478 23.9394C25.2759 23.6478 25.0431 23.3367 24.852 23.0084C23.6074 24.4564 21.6669 25.238 19.5451 25.0199C19.0747 24.9709 18.6263 24.8851 18.2098 24.7602C17.6953 24.6083 17.4013 24.0668 17.5556 23.5523C17.7075 23.0378 18.249 22.7438 18.7635 22.8981C19.0649 22.9888 19.3956 23.05 19.7436 23.0868C21.5101 23.2681 23.5657 22.4571 24.1733 20.2397C24.2174 20.0756 24.3032 19.931 24.4183 19.8159C24.6634 19.5145 25.0701 19.3847 25.4498 19.4974C25.8811 19.6248 26.1653 20.0315 26.1408 20.4799C26.0991 21.2369 26.3931 21.994 26.9689 22.6114C27.6378 23.3269 28.5688 23.7458 29.5268 23.7605C30.9944 23.7826 32.3395 23.2681 33.0427 22.4154C33.1652 22.266 33.295 22.0724 33.3808 21.8446C33.3122 21.3913 33.3416 20.9356 33.4739 20.497C33.6013 20.0731 34.0031 19.7889 34.4466 19.8085C34.8901 19.8281 35.2649 20.1466 35.3556 20.5803C35.4438 21.0066 35.4536 21.4378 35.3825 21.8593C35.4389 22.0063 35.5222 22.1557 35.63 22.3076C36.1862 23.0892 37.3206 23.7311 38.2148 23.7679C39.3811 23.8144 40.3317 23.5253 40.9663 22.9275C41.5151 22.4105 41.8116 21.6657 41.8238 20.7739C41.8312 20.2863 42.1987 19.8796 42.6838 19.8232C43.1665 19.7669 43.6198 20.078 43.7374 20.5509C44.3817 23.1113 46.3761 23.518 47.5081 23.5327C47.954 23.5351 48.3705 23.4641 48.7405 23.3122C49.2378 23.1088 49.8038 23.3465 50.0072 23.8414C50.2105 24.3388 49.9729 24.9047 49.4779 25.1081C48.8654 25.358 48.1965 25.483 47.4836 25.4732C45.619 25.4487 44.0706 24.721 43.0317 23.442C42.8284 23.7679 42.5834 24.0693 42.2992 24.3363C41.3436 25.2453 40.023 25.7157 38.4623 25.7157Z" fill="#4ABBC1"/>
<path d="M51.707 29.4152C51.7046 29.4152 51.7021 29.4152 51.6997 29.4152L15.7568 29.1922C15.2202 29.1873 14.789 28.7316 14.7939 28.195C14.7988 27.6609 15.2324 27.2125 15.7641 27.2125C15.7666 27.2125 15.769 27.2125 15.7715 27.2125L51.7144 27.5359C52.251 27.5408 52.6822 27.9476 52.6773 28.4841C52.6748 29.0158 52.2412 29.4152 51.707 29.4152Z" fill="#4ABBC1"/>
<path d="M65.2124 58.8167L1.84347 58.6721C1.32874 58.6721 0.91272 58.1772 0.91272 57.6406C0.91272 57.104 1.33109 56.6116 1.84347 56.6116H1.84582L65.2147 56.8051C65.7294 56.8051 66.1455 57.2756 66.1455 57.8121C66.1431 58.3487 65.7271 58.8167 65.2124 58.8167Z" fill="#4ABBC1"/>
<path d="M10.6309 54.4058H10.4912C9.95467 54.4058 9.521 53.9624 9.521 53.4258C9.521 52.8893 9.95467 52.4458 10.4912 52.4458H10.6309C11.1675 52.4458 11.6011 52.8893 11.6011 53.4258C11.6011 53.9624 11.1675 54.4058 10.6309 54.4058Z" fill="#4ABBC1"/>
<path d="M52.2631 54.4058H51.9862C51.4496 54.4058 51.016 53.9624 51.016 53.4258C51.016 52.8893 51.4496 52.4458 51.9862 52.4458H52.2631C52.7996 52.4458 53.2333 52.8893 53.2333 53.4258C53.2333 53.9624 52.7996 54.4058 52.2631 54.4058ZM48.1004 54.4058H47.8235C47.2869 54.4058 46.8533 53.9624 46.8533 53.4258C46.8533 52.8893 47.2869 52.4458 47.8235 52.4458H48.1004C48.6369 52.4458 49.0706 52.8893 49.0706 53.4258C49.0706 53.9624 48.6369 54.4058 48.1004 54.4058ZM43.9376 54.4058H43.6608C43.1242 54.4058 42.6905 53.9624 42.6905 53.4258C42.6905 52.8893 43.1242 52.4458 43.6608 52.4458H43.9376C44.4742 52.4458 44.9079 52.8893 44.9079 53.4258C44.9079 53.9624 44.4742 54.4058 43.9376 54.4058ZM39.7725 54.4058H39.4956C38.959 54.4058 38.5254 53.9624 38.5254 53.4258C38.5254 52.8893 38.959 52.4458 39.4956 52.4458H39.7725C40.309 52.4458 40.7427 52.8893 40.7427 53.4258C40.7427 53.9624 40.309 54.4058 39.7725 54.4058ZM35.6098 54.4058H35.3329C34.7963 54.4058 34.3627 53.9624 34.3627 53.4258C34.3627 52.8893 34.7963 52.4458 35.3329 52.4458H35.6098C36.1463 52.4458 36.58 52.8893 36.58 53.4258C36.58 53.9624 36.1463 54.4058 35.6098 54.4058ZM31.447 54.4058H31.1702C30.6336 54.4058 30.1999 53.9624 30.1999 53.4258C30.1999 52.8893 30.6336 52.4458 31.1702 52.4458H31.447C31.9836 52.4458 32.4173 52.8893 32.4173 53.4258C32.4173 53.9624 31.9836 54.4058 31.447 54.4058ZM27.2843 54.4058H27.0075C26.4709 54.4058 26.0372 53.9624 26.0372 53.4258C26.0372 52.8893 26.4709 52.4458 27.0075 52.4458H27.2843C27.8209 52.4458 28.2546 52.8893 28.2546 53.4258C28.2546 53.9624 27.8209 54.4058 27.2843 54.4058ZM23.1192 54.4058H22.8423C22.3057 54.4058 21.8721 53.9624 21.8721 53.4258C21.8721 52.8893 22.3057 52.4458 22.8423 52.4458H23.1192C23.6557 52.4458 24.0894 52.8893 24.0894 53.4258C24.0894 53.9624 23.6557 54.4058 23.1192 54.4058ZM18.9564 54.4058H18.6796C18.143 54.4058 17.7093 53.9624 17.7093 53.4258C17.7093 52.8893 18.143 52.4458 18.6796 52.4458H18.9564C19.493 52.4458 19.9267 52.8893 19.9267 53.4258C19.9267 53.9624 19.493 54.4058 18.9564 54.4058ZM14.7937 54.4058H14.5169C13.9803 54.4058 13.5466 53.9624 13.5466 53.4258C13.5466 52.8893 13.9803 52.4458 14.5169 52.4458H14.7937C15.3303 52.4458 15.764 52.8893 15.764 53.4258C15.764 53.9624 15.3303 54.4058 14.7937 54.4058Z" fill="#4ABBC1"/>
<path d="M56.4254 54.4058H56.2858C55.7492 54.4058 55.3156 53.9624 55.3156 53.4258C55.3156 52.8893 55.7492 52.4458 56.2858 52.4458H56.4254C56.962 52.4458 57.3957 52.8893 57.3957 53.4258C57.3957 53.9624 56.962 54.4058 56.4254 54.4058Z" fill="#4ABBC1"/>
<path d="M34.2278 17.8387C34.1739 17.8387 34.12 17.8338 34.0637 17.824C33.5345 17.7334 33.1792 17.2336 33.2674 16.7044C33.2993 16.5157 33.3164 16.3221 33.3164 16.131C33.3164 14.2567 31.7924 12.7303 29.9157 12.7303C28.0414 12.7303 26.5149 14.2567 26.5149 16.131C26.5149 16.2339 26.5198 16.3393 26.5296 16.4397C26.5786 16.9739 26.1842 17.4467 25.6501 17.4933C25.1159 17.5423 24.6431 17.1478 24.5941 16.6137C24.5794 16.4544 24.572 16.2903 24.572 16.1286C24.572 13.1836 26.9682 10.7849 29.9157 10.7849C32.8607 10.7849 35.2593 13.1811 35.2593 16.1286C35.2593 16.4299 35.2348 16.7338 35.1834 17.0278C35.105 17.5031 34.6934 17.8387 34.2278 17.8387Z" fill="#4ABBC1"/>
<path d="M41.3233 17.8385C41.2694 17.8385 41.2155 17.8336 41.1591 17.8238C40.6299 17.7331 40.2746 17.2333 40.3628 16.7041C40.3849 16.5816 40.3947 16.4542 40.3947 16.3292C40.3947 15.1042 39.4 14.1094 38.1749 14.1094C36.9499 14.1094 35.9551 15.1042 35.9551 16.3292C35.9551 16.3978 35.9576 16.4664 35.9649 16.5326C36.0139 17.0667 35.6195 17.5396 35.0853 17.5886C34.5512 17.6376 34.0784 17.2431 34.0318 16.709C34.0196 16.584 34.0146 16.4591 34.0146 16.3317C34.0146 14.0359 35.8816 12.1689 38.1774 12.1689C40.4731 12.1689 42.3401 14.0359 42.3401 16.3317C42.3401 16.5669 42.3205 16.8021 42.2813 17.0324C42.2004 17.5028 41.7888 17.8385 41.3233 17.8385Z" fill="#4ABBC1"/>
<path d="M34.5391 11.5292C34.5244 11.5292 34.5122 11.5292 34.4975 11.5292C33.9609 11.5292 33.5272 11.0662 33.5297 10.5296C33.5321 9.99302 33.9658 9.5471 34.4999 9.5471C34.5122 9.5471 34.5244 9.53975 34.5367 9.53975C37.1166 9.53975 39.3364 8.67732 40.635 7.17541C41.86 5.7568 42.2986 3.80652 41.936 1.37848C41.8576 0.846807 42.2226 0.351887 42.7543 0.273484C43.2835 0.192631 43.7785 0.560145 43.8593 1.08937C44.3028 4.05888 43.6976 6.62904 42.1075 8.46906C40.412 10.4267 37.7267 11.5292 34.5391 11.5292Z" fill="#4ABBC1"/>
<path d="M34.4681 11.1693C33.9976 11.1693 33.5836 10.8263 33.5101 10.3461C32.9882 6.98698 33.5027 4.40458 35.0389 2.66991C36.6143 0.891135 39.2237 0.0507516 42.7886 0.170806C43.3252 0.187957 43.7441 0.638775 43.727 1.17535C43.7098 1.71192 43.259 2.13579 42.7224 2.11373C39.7603 2.01328 37.6654 2.63316 36.4918 3.95866C35.3574 5.24006 34.9997 7.28834 35.4285 10.0496C35.5118 10.5788 35.1492 11.0762 34.6175 11.1595C34.5685 11.1668 34.5195 11.1693 34.4681 11.1693Z" fill="#4ABBC1"/>
</svg>
