<svg width="54" height="60" viewBox="0 0 54 60" fill="none" xmlns="http://www.w3.org/2000/svg">
<path d="M34.052 45.7547C30.5075 45.7547 27.425 43.4069 26.339 40.1367C24.7678 41.7019 22.642 42.601 20.3776 42.601C18.2009 42.601 16.1213 41.7578 14.5501 40.2625C13.0204 41.292 11.2043 41.8556 9.35573 41.8556C4.19835 41.851 0.00219727 37.6258 0.00219727 32.4271C0.00219727 27.7314 3.44507 23.7904 7.97396 23.115C8.72723 15.4706 15.1 9.59167 22.813 9.59167C25.3177 9.59167 27.7994 10.2299 29.9806 11.4411L29.0887 13.0715C27.1755 12.014 25.0081 11.4504 22.8084 11.4504C15.8163 11.4504 10.0813 16.9612 9.75778 24.0001C9.73468 24.4752 9.36035 24.8572 8.88898 24.8852C4.947 25.1274 1.85072 28.4395 1.85072 32.4271C1.85072 36.5963 5.21503 39.9923 9.35573 39.9923C11.0933 39.9923 12.7247 39.41 14.0741 38.306C14.4623 37.9892 15.0261 38.0404 15.3542 38.4178C16.6204 39.8945 18.4551 40.7376 20.3776 40.7376C22.6466 40.7376 24.7354 39.587 25.9693 37.6584C26.0895 37.4721 26.2743 37.3324 26.4869 37.2671L26.6025 37.2345C26.8705 37.1553 27.1616 37.1973 27.3927 37.3557C27.6238 37.514 27.7716 37.7702 27.7901 38.0544C28.0443 41.3246 30.794 43.8914 34.0474 43.8914C36.3673 43.8914 38.4931 42.6103 39.5883 40.542C39.7085 40.3137 39.9211 40.146 40.1706 40.0808C40.4202 40.0156 40.6882 40.0575 40.9054 40.2019C42.0885 40.9752 43.4564 41.3805 44.8566 41.3805C48.8772 41.3805 52.1491 38.0824 52.1491 34.0296C52.1491 31.0435 50.3745 28.3743 47.634 27.233C47.2874 27.0886 47.061 26.7485 47.061 26.3712C47.061 25.4628 46.927 24.5637 46.6589 23.7019L48.4243 23.1522C48.6831 24.0001 48.8402 24.8758 48.891 25.7656C52.0104 27.3122 53.9976 30.4892 53.9976 34.0296C53.9976 39.1072 49.8985 43.2439 44.8566 43.2439C43.4102 43.2439 41.996 42.8991 40.7159 42.2423C39.214 44.4271 36.737 45.7547 34.052 45.7547Z" fill="#4ABBC1"/>
<path d="M36.9868 59.9999H16.7038C14.0096 59.9999 11.6389 58.076 11.0566 55.4254L7.92334 41.1008L9.73027 40.7002L12.8635 55.0247C13.2563 56.8275 14.8738 58.1365 16.7038 58.1365H36.9868C38.8168 58.1365 40.4342 56.8275 40.8271 55.0247L43.6553 42.0977L45.4622 42.4983L42.634 55.4254C42.0517 58.076 39.6764 59.9999 36.9868 59.9999Z" fill="#4ABBC1"/>
<path d="M15.5141 43.1163L13.7078 43.5121L16.357 55.7984L18.1634 55.4026L15.5141 43.1163Z" fill="#4ABBC1"/>
<path d="M21.2953 43.6044L19.459 43.8184L20.8219 55.7068L22.6582 55.4929L21.2953 43.6044Z" fill="#4ABBC1"/>
<path d="M27.2448 43.0247H25.3962V55.5976H27.2448V43.0247Z" fill="#4ABBC1"/>
<path d="M31.2001 44.939L29.99 55.4946L31.8263 55.7085L33.0364 45.1529L31.2001 44.939Z" fill="#4ABBC1"/>
<path d="M37.5238 43.7131L35.0042 55.3986L36.8105 55.7943L39.3302 44.1089L37.5238 43.7131Z" fill="#4ABBC1"/>
<path d="M20.2429 17.7156L18.7312 18.788L20.7445 21.6718L22.2562 20.5995L20.2429 17.7156Z" fill="#4ABBC1"/>
<path d="M9.87804 30.8332L8.8186 32.7551L10.4344 33.6602L11.4938 31.7382L9.87804 30.8332Z" fill="#4ABBC1"/>
<path d="M24.1778 30.8846L22.4241 31.4738L23.3783 34.3596L25.132 33.7704L24.1778 30.8846Z" fill="#4ABBC1"/>
<path d="M33.9621 33.4542L33.8423 35.3136L37.1073 35.5273L37.2271 33.6679L33.9621 33.4542Z" fill="#4ABBC1"/>
<path d="M46.4787 33.3157L44.6433 33.5375L44.9612 36.2109L46.7966 35.9892L46.4787 33.3157Z" fill="#4ABBC1"/>
<path d="M30.9728 24.6632L29.6306 25.9445L31.8549 28.3122L33.1972 27.0309L30.9728 24.6632Z" fill="#4ABBC1"/>
<path d="M39.4586 24.3585C34.5693 24.3585 30.5903 20.3476 30.5903 15.4191C30.5903 10.4905 34.5693 6.47498 39.4586 6.47498C44.348 6.47498 48.3269 10.4858 48.3269 15.4144C48.3269 20.343 44.348 24.3585 39.4586 24.3585ZM39.4586 8.33833C35.586 8.33833 32.4389 11.5153 32.4389 15.4144C32.4389 19.3181 35.5906 22.4905 39.4586 22.4905C43.3313 22.4905 46.4784 19.3135 46.4784 15.4144C46.4784 11.5153 43.3313 8.33833 39.4586 8.33833Z" fill="#4ABBC1"/>
<path d="M40.3832 10.5606L38.5347 10.4814C38.5485 10.1879 38.9182 3.2236 45.4805 0L46.2892 1.67702C40.7067 4.41615 40.3832 10.5 40.3832 10.5606Z" fill="#4ABBC1"/>
<path d="M39.9442 13.1415C38.3498 13.1415 36.8248 12.3729 35.8728 11.0825L37.3516 9.96448C37.9709 10.7983 38.9136 11.2735 39.9442 11.2735C40.7252 11.2735 41.4785 10.9893 42.0654 10.4722L43.2808 11.8791C42.3519 12.6943 41.1688 13.1415 39.9442 13.1415Z" fill="#4ABBC1"/>
</svg>
