<svg width="62" height="38" viewBox="0 0 62 38" fill="none" xmlns="http://www.w3.org/2000/svg">
<path d="M26.2657 31.5236C25.858 31.5236 25.4961 31.2951 25.3854 30.898L19.0098 8.05147C18.9342 7.78492 18.9828 7.51022 19.1421 7.28175C19.1907 7.21376 20.3303 5.61178 22.5419 4.0098C24.5807 2.53838 27.9616 0.781372 32.4928 0.781372C37.0268 0.781372 40.405 2.5411 42.4438 4.01796C44.6554 5.61994 45.7976 7.22736 45.8436 7.29535C46.0056 7.52654 46.0542 7.82028 45.9732 8.09226L39.1709 30.7729C39.0548 31.1564 38.7091 31.374 38.3095 31.3821L26.2792 31.5236C26.2765 31.5236 26.2711 31.5236 26.2657 31.5236ZM20.8946 8.02971L26.9543 29.7666L37.6128 29.6006L44.0856 8.02155C43.6589 7.5075 42.7273 6.48485 41.3204 5.47307C38.6875 3.58279 35.7171 2.62541 32.4955 2.62541C25.8499 2.62541 21.9046 6.80851 20.8946 8.02971Z" fill="#4ABBC1"/>
<path d="M17.6435 33.6751C17.4058 33.6751 17.1736 33.5826 16.9954 33.4031L3.60142 19.8394C3.29088 19.5239 3.24767 19.0289 3.50151 18.6644C3.78235 18.2564 10.4847 8.69896 18.5535 7.30641C19.0504 7.21938 19.5229 7.55663 19.6093 8.05708C19.6958 8.55753 19.3609 9.0335 18.864 9.12053C12.6612 10.1921 7.05522 17.0026 5.45659 19.1023L17.7542 31.5536L24.6591 28.3715C25.0722 28.0804 25.6663 28.0587 25.958 28.4748C26.2469 28.8909 26.2442 29.7232 25.831 30.0142L18.1727 33.5065C18.0107 33.618 17.8271 33.6751 17.6435 33.6751Z" fill="#4ABBC1"/>
<path d="M7.6139 36.6587C6.54455 36.6587 5.48869 36.3922 4.52195 35.8673C2.92872 34.9996 1.75405 33.4901 1.30039 31.7277C0.754906 29.6008 0.949335 27.5745 1.88367 25.7006C2.67759 24.1068 4.01428 22.6163 5.86135 21.27C6.26911 20.9708 6.84159 21.0633 7.13863 21.474C7.43567 21.8847 7.34386 22.4613 6.9361 22.7604C3.50931 25.2627 2.24552 28.0423 3.07454 31.2626C3.40129 32.5328 4.24651 33.618 5.39418 34.2435C6.55805 34.8773 12.7257 35.5055 15.5422 30.7948C15.8015 30.3596 15.0832 30.5827 15.5422 30.7948C16.0013 31.0069 16.9843 31.4095 16.7547 31.861C14.4054 36.433 8.3322 36.6587 7.6139 36.6587Z" fill="#4ABBC1"/>
<path d="M46.2132 33.6751C46.0458 33.6751 45.881 33.6289 45.7325 33.5364L38.563 29.9653C38.1363 29.696 38.4334 28.4776 38.7007 28.0478C38.968 27.6154 39.0085 28.1049 39.4379 28.3742L46.1025 31.6026L58.4946 19.9754C56.8716 17.8485 51.2845 11.0843 45.106 10.0181C44.6092 9.93108 44.2743 9.45783 44.358 8.95466C44.4444 8.45422 44.9143 8.11696 45.4139 8.20399C53.4826 9.59654 60.185 19.154 60.4659 19.562C60.7278 19.9373 60.6738 20.4486 60.3389 20.7614L46.837 33.4304C46.6642 33.5908 46.44 33.6751 46.2132 33.6751Z" fill="#4ABBC1"/>
<path d="M54.4305 37.2187C53.9174 37.2187 53.399 37.1915 52.8832 37.148C50.523 36.9549 49.1161 35.7364 47.0368 33.245C46.7128 32.8561 46.7614 32.2768 47.1475 31.9477C47.5337 31.6213 48.1089 31.6702 48.4356 32.0592C50.2557 34.2378 51.298 35.1707 53.0317 35.3148C57.2524 35.6602 58.3974 34.4907 58.9456 32.3529C59.7692 29.1463 58.2003 27.3648 56.0264 24.9006C55.8023 24.6477 55.5782 24.392 55.3513 24.1309C55.0192 23.7474 55.0597 23.1654 55.4405 22.8335C55.8212 22.499 56.3964 22.5398 56.7285 22.9233C56.9527 23.1817 57.1741 23.4319 57.3928 23.6821C59.6531 26.2415 61.7864 28.6621 60.717 32.818C59.7881 36.4299 57.1768 37.2187 54.4305 37.2187Z" fill="#4ABBC1"/>
<path d="M17.8567 21.1635C17.5407 21.1635 17.2302 21.0247 17.0195 20.7555L14.9672 18.1581C14.6 17.693 14.6756 17.013 15.1374 16.6431C15.5991 16.2732 16.2742 16.3494 16.6415 16.8145L18.6938 19.4119C19.061 19.877 18.9854 20.5569 18.5237 20.9268C18.3238 21.0873 18.0889 21.1635 17.8567 21.1635Z" fill="#4ABBC1"/>
<path d="M24.8316 29.9893C24.5157 29.9893 24.2052 29.8506 23.9945 29.5814L19.2094 23.5298C18.8422 23.0647 18.9178 22.3847 19.3796 22.0148C19.8413 21.6449 20.5164 21.7211 20.8837 22.1862L25.6688 28.2378C26.036 28.7029 25.9604 29.3828 25.4986 29.7527C25.3015 29.9132 25.0666 29.9893 24.8316 29.9893Z" fill="#4ABBC1"/>
<path d="M39.7187 30.0251C39.4811 30.0251 39.2434 29.9462 39.0463 29.7857C38.5872 29.4104 38.5143 28.7331 38.887 28.2681L45.9917 19.4232C46.3644 18.9608 47.0367 18.8874 47.4985 19.2627C47.9576 19.638 48.0305 20.3153 47.6578 20.7804L40.5531 29.6253C40.3398 29.8891 40.0292 30.0251 39.7187 30.0251Z" fill="#4ABBC1"/>
</svg>
