<svg width="16" height="17" viewBox="0 0 16 17" fill="none" xmlns="http://www.w3.org/2000/svg">
<g clip-path="url(#clip0)">
<path d="M12.0842 10.3289C10.9721 10.3289 10.0674 11.2336 10.0674 12.3457C10.0674 13.4578 10.9721 14.3625 12.0842 14.3625C13.1965 14.3625 14.101 13.4578 14.101 12.3457C14.101 11.2336 13.1963 10.3289 12.0842 10.3289ZM12.0842 13.3541C11.5281 13.3541 11.0758 12.9018 11.0758 12.3457C11.0758 11.7895 11.5281 11.3373 12.0842 11.3373C12.6403 11.3373 13.0926 11.7895 13.0926 12.3457C13.0926 12.9018 12.6403 13.3541 12.0842 13.3541Z" fill="#5D2524"/>
<path d="M5.19357 10.3289C4.08148 10.3289 3.17676 11.2336 3.17676 12.3457C3.17676 13.4578 4.08148 14.3625 5.19357 14.3625C6.30566 14.3625 7.21038 13.4578 7.21038 12.3457C7.21038 11.2336 6.30566 10.3289 5.19357 10.3289ZM5.19357 13.3541C4.63744 13.3541 4.18516 12.9018 4.18516 12.3457C4.18516 11.7895 4.63744 11.3373 5.19357 11.3373C5.74954 11.3373 6.20198 11.7895 6.20198 12.3457C6.20198 12.9018 5.74969 13.3541 5.19357 13.3541Z" fill="#5D2524"/>
<path d="M13.442 4.55622C13.3563 4.38597 13.182 4.27856 12.9914 4.27856H10.3359V5.28697H12.6805L14.0534 8.01772L14.9546 7.5646L13.442 4.55622Z" fill="#5D2524"/>
<path d="M10.5715 11.8584H6.75635V12.8668H10.5715V11.8584Z" fill="#5D2524"/>
<path d="M3.68077 11.8584H1.9329C1.6544 11.8584 1.42871 12.0841 1.42871 12.3626C1.42871 12.6411 1.65443 12.8668 1.9329 12.8668H3.6808C3.9593 12.8668 4.18499 12.6411 4.18499 12.3626C4.18499 12.0841 3.95927 11.8584 3.68077 11.8584Z" fill="#5D2524"/>
<path d="M15.8942 8.77614L14.9025 7.49882C14.8072 7.37579 14.6601 7.30386 14.5043 7.30386H10.8405V3.77445C10.8405 3.49595 10.6147 3.27026 10.3363 3.27026H1.9329C1.6544 3.27026 1.42871 3.49598 1.42871 3.77445C1.42871 4.05292 1.65443 4.27864 1.9329 4.27864H9.83205V7.80804C9.83205 8.08654 10.0578 8.31223 10.3362 8.31223H14.2574L14.9917 9.25811V11.8584H13.5967C13.3182 11.8584 13.0926 12.0842 13.0926 12.3626C13.0926 12.6411 13.3183 12.8668 13.5967 12.8668H15.4959C15.7744 12.8668 16.0001 12.6411 16.0001 12.3626V9.08539C16.0001 8.97345 15.9628 8.86454 15.8942 8.77614Z" fill="#5D2524"/>
<path d="M3.64726 9.30396H1.32792C1.04942 9.30396 0.82373 9.52967 0.82373 9.80814C0.82373 10.0866 1.04945 10.3123 1.32792 10.3123H3.64723C3.92573 10.3123 4.15142 10.0866 4.15142 9.80814C4.15145 9.52967 3.92573 9.30396 3.64726 9.30396Z" fill="#5D2524"/>
<path d="M4.80672 7.32056H0.504188C0.225719 7.32056 0 7.54628 0 7.82478C0 8.10328 0.225719 8.32896 0.504188 8.32896H4.80672C5.08522 8.32896 5.31091 8.10324 5.31091 7.82478C5.31091 7.54631 5.08522 7.32056 4.80672 7.32056Z" fill="#5D2524"/>
<path d="M5.63045 5.3374H1.32792C1.04942 5.3374 0.82373 5.56312 0.82373 5.84159C0.82373 6.12009 1.04945 6.34578 1.32792 6.34578H5.63045C5.90895 6.34578 6.13464 6.12006 6.13464 5.84159C6.13467 5.56312 5.90895 5.3374 5.63045 5.3374Z" fill="#5D2524"/>
</g>
<defs>
<clipPath id="clip0">
<rect width="16" height="16" fill="white" transform="translate(0 0.816406)"/>
</clipPath>
</defs>
</svg>
