<svg width="25" height="25" viewBox="0 0 25 25" fill="none" xmlns="http://www.w3.org/2000/svg">
<rect width="25" height="25" rx="6" fill="white"/>
<path d="M19.4686 15.9729V18.0753C19.4694 18.2704 19.4294 18.4636 19.3512 18.6424C19.273 18.8213 19.1583 18.9818 19.0145 19.1137C18.8707 19.2457 18.7009 19.3461 18.516 19.4086C18.3311 19.4712 18.1352 19.4944 17.9409 19.4768C15.7844 19.2425 13.713 18.5056 11.8931 17.3254C10.1999 16.2495 8.7643 14.8139 7.68835 13.1207C6.50401 11.2925 5.76697 9.211 5.53694 7.04487C5.51943 6.85108 5.54246 6.65577 5.60456 6.47137C5.66667 6.28696 5.7665 6.11751 5.89768 5.97381C6.02886 5.8301 6.18853 5.71528 6.36652 5.63666C6.54451 5.55804 6.73692 5.51734 6.9315 5.51716H9.03386C9.37396 5.51381 9.70367 5.63424 9.96154 5.85601C10.2194 6.07778 10.3878 6.38575 10.4354 6.72251C10.5242 7.39531 10.6887 8.05592 10.926 8.69172C11.0203 8.94255 11.0407 9.21515 10.9848 9.47722C10.9289 9.73929 10.799 9.97985 10.6106 10.1704L9.72063 11.0604C10.7182 12.8148 12.1709 14.2675 13.9254 15.2651L14.8154 14.3751C15.0059 14.1867 15.2464 14.0568 15.5085 14.0009C15.7706 13.9451 16.0432 13.9655 16.294 14.0597C16.9298 14.297 17.5904 14.4616 18.2632 14.5503C18.6036 14.5983 18.9145 14.7698 19.1368 15.0321C19.359 15.2944 19.4771 15.6292 19.4686 15.9729Z" fill="#5D2524"/>
</svg>
