<svg width="61" height="65" viewBox="0 0 61 65" fill="none" xmlns="http://www.w3.org/2000/svg">
<path d="M59.4376 22.8519L59.4381 22.8534C59.6616 23.5419 59.4544 24.2927 58.9093 24.7697L58.9081 24.7707L45.7707 36.29L45.1438 36.8396L45.3284 37.6526L49.2022 54.7165C49.3622 55.4235 49.0881 56.1528 48.5014 56.578L48.5013 56.5781C47.9158 57.0025 47.1409 57.0348 46.5268 56.6654L46.5235 56.6634L31.5369 47.7031L30.8186 47.2737L30.1002 47.703L15.108 56.6633L15.1074 56.6637C14.8174 56.8372 14.5011 56.9217 14.1856 56.9217C13.8183 56.9217 13.4508 56.8078 13.131 56.5768C12.5472 56.1546 12.2717 55.4271 12.4319 54.7165C12.432 54.7163 12.432 54.7161 12.4321 54.7159L16.3057 37.6526L16.4902 36.8397L15.8635 36.2901L2.72608 24.7685L2.72342 24.7661C2.18203 24.2937 1.9746 23.5427 2.19849 22.8541C2.42218 22.1662 3.02822 21.6815 3.74766 21.6147C3.74792 21.6146 3.74818 21.6146 3.74845 21.6146L21.1292 20.0367L21.9616 19.9611L22.29 19.1925L29.162 3.11082C29.4491 2.44135 30.0987 2.01426 30.8184 2.01426C31.5383 2.01426 32.1878 2.44149 32.4749 3.10807C32.475 3.10843 32.4752 3.10879 32.4753 3.10915L39.3468 19.1924L39.6752 19.9611L40.5076 20.0366L57.8879 21.6148L57.8889 21.6149C58.6087 21.6798 59.2159 22.1659 59.4376 22.8519Z" fill="white" stroke="#4ABBC1" stroke-width="2.8"/>
<path d="M59.5014 43.4977L59.5009 43.4962C59.4377 43.3008 59.2657 43.1631 59.0607 43.1446L59.0597 43.1446L48.6725 42.2014L47.8401 42.1258L47.5117 41.3572L43.4055 31.7462C43.4053 31.7459 43.4051 31.7455 43.405 31.7451C43.3218 31.5529 43.1367 31.4327 42.9327 31.4327C42.729 31.4327 42.5438 31.5527 42.4605 31.7466C42.4605 31.7467 42.4605 31.7467 42.4605 31.7468L38.3538 41.3572L38.0254 42.1258L37.193 42.2014L26.8064 43.1444C26.806 43.1444 26.8057 43.1444 26.8054 43.1444C26.5999 43.1638 26.428 43.3012 26.3639 43.4984C26.2995 43.6964 26.3596 43.9093 26.5123 44.0425L26.5149 44.0448L34.3665 50.9307L34.9931 51.4803L34.8086 52.2932L32.4937 62.4904C32.4937 62.4905 32.4937 62.4906 32.4936 62.4907C32.4472 62.6965 32.5268 62.9024 32.6918 63.0218L59.5014 43.4977ZM59.5014 43.4977C59.5653 43.6947 59.5065 43.9083 59.3501 44.0451L59.349 44.0461L51.4975 50.9306L50.8707 51.4802L51.0552 52.2932L53.3703 62.491C53.3703 62.4912 53.3703 62.4913 53.3704 62.4915C53.4162 62.6946 53.3378 62.9016 53.1703 63.023L53.1702 63.0231C53.0027 63.1446 52.784 63.1527 52.6112 63.0487L52.6079 63.0467L43.6512 57.6916L42.9329 57.2622L42.2145 57.6915L33.2545 63.0466L33.2539 63.047M59.5014 43.4977L33.2539 63.047M33.2539 63.047C33.1678 63.0985 33.0787 63.1213 32.9922 63.1213C32.8906 63.1213 32.7866 63.0902 32.6921 63.022L33.2539 63.047Z" fill="white" stroke="#4ABBC1" stroke-width="2.8"/>
</svg>
