<svg width="99" height="20" viewBox="0 0 99 20" fill="none" xmlns="http://www.w3.org/2000/svg">
<path d="M14.9609 7.43207C14.8627 7.12833 14.5933 6.91261 14.2745 6.88388L9.94515 6.49077L8.23319 2.48375C8.10695 2.19009 7.81947 2 7.50006 2C7.18065 2 6.89317 2.19009 6.76693 2.48444L5.05497 6.49077L0.724884 6.88388C0.406731 6.91329 0.138017 7.12833 0.0392523 7.43207C-0.0595126 7.7358 0.031699 8.06894 0.272374 8.27895L3.54489 11.149L2.5799 15.3997C2.50929 15.7123 2.6306 16.0354 2.88993 16.2228C3.02932 16.3235 3.1924 16.3748 3.35686 16.3748C3.49865 16.3748 3.63931 16.3366 3.76554 16.261L7.50006 14.0291L11.2332 16.261C11.5064 16.4254 11.8507 16.4104 12.1095 16.2228C12.3689 16.0348 12.4901 15.7116 12.4195 15.3997L11.4545 11.149L14.7271 8.27952C14.9677 8.06894 15.0596 7.73637 14.9609 7.43207Z" fill="#FFB800"/>
<path d="M35.9609 7.43207C35.8627 7.12833 35.5933 6.91261 35.2745 6.88388L30.9451 6.49077L29.2332 2.48375C29.107 2.19009 28.8195 2 28.5001 2C28.1806 2 27.8932 2.19009 27.7669 2.48444L26.055 6.49077L21.7249 6.88388C21.4067 6.91329 21.138 7.12833 21.0393 7.43207C20.9405 7.7358 21.0317 8.06894 21.2724 8.27895L24.5449 11.149L23.5799 15.3997C23.5093 15.7123 23.6306 16.0354 23.8899 16.2228C24.0293 16.3235 24.1924 16.3748 24.3569 16.3748C24.4987 16.3748 24.6393 16.3366 24.7655 16.261L28.5001 14.0291L32.2332 16.261C32.5064 16.4254 32.8507 16.4104 33.1095 16.2228C33.3689 16.0348 33.4901 15.7116 33.4195 15.3997L32.4545 11.149L35.7271 8.27952C35.9677 8.06894 36.0596 7.73637 35.9609 7.43207Z" fill="#FFB800"/>
<path d="M56.9609 7.43207C56.8627 7.12833 56.5933 6.91261 56.2745 6.88388L51.9451 6.49077L50.2332 2.48375C50.107 2.19009 49.8195 2 49.5001 2C49.1806 2 48.8932 2.19009 48.7669 2.48444L47.055 6.49077L42.7249 6.88388C42.4067 6.91329 42.138 7.12833 42.0393 7.43207C41.9405 7.7358 42.0317 8.06894 42.2724 8.27895L45.5449 11.149L44.5799 15.3997C44.5093 15.7123 44.6306 16.0354 44.8899 16.2228C45.0293 16.3235 45.1924 16.3748 45.3569 16.3748C45.4987 16.3748 45.6393 16.3366 45.7655 16.261L49.5001 14.0291L53.2332 16.261C53.5064 16.4254 53.8507 16.4104 54.1095 16.2228C54.3689 16.0348 54.4901 15.7116 54.4195 15.3997L53.4545 11.149L56.7271 8.27952C56.9677 8.06894 57.0596 7.73637 56.9609 7.43207Z" fill="#FFB800"/>
<path d="M77.9609 7.43207C77.8627 7.12833 77.5933 6.91261 77.2745 6.88388L72.9451 6.49077L71.2332 2.48375C71.107 2.19009 70.8195 2 70.5001 2C70.1806 2 69.8932 2.19009 69.7669 2.48444L68.055 6.49077L63.7249 6.88388C63.4067 6.91329 63.138 7.12833 63.0393 7.43207C62.9405 7.7358 63.0317 8.06894 63.2724 8.27895L66.5449 11.149L65.5799 15.3997C65.5093 15.7123 65.6306 16.0354 65.8899 16.2228C66.0293 16.3235 66.1924 16.3748 66.3569 16.3748C66.4987 16.3748 66.6393 16.3366 66.7655 16.261L70.5001 14.0291L74.2332 16.261C74.5064 16.4254 74.8507 16.4104 75.1095 16.2228C75.3689 16.0348 75.4901 15.7116 75.4195 15.3997L74.4545 11.149L77.7271 8.27952C77.9677 8.06894 78.0596 7.73637 77.9609 7.43207Z" fill="#FFB800"/>
<path d="M98.9609 7.43207C98.8627 7.12833 98.5933 6.91261 98.2745 6.88388L93.9451 6.49077L92.2332 2.48375C92.107 2.19009 91.8195 2 91.5001 2C91.1806 2 90.8932 2.19009 90.7669 2.48444L89.055 6.49077L84.7249 6.88388C84.4067 6.91329 84.138 7.12833 84.0393 7.43207C83.9405 7.7358 84.0317 8.06894 84.2724 8.27895L87.5449 11.149L86.5799 15.3997C86.5093 15.7123 86.6306 16.0354 86.8899 16.2228C87.0293 16.3235 87.1924 16.3748 87.3569 16.3748C87.4987 16.3748 87.6393 16.3366 87.7655 16.261L91.5001 14.0291L95.2332 16.261C95.5064 16.4254 95.8507 16.4104 96.1095 16.2228C96.3689 16.0348 96.4901 15.7116 96.4195 15.3997L95.4545 11.149L98.7271 8.27952C98.9677 8.06894 99.0596 7.73637 98.9609 7.43207Z" fill="#F3E2C8"/>
<mask id="mask0" mask-type="alpha" maskUnits="userSpaceOnUse" x="82" y="0" width="10" height="20">
<rect x="82" width="9.59373" height="20" fill="#C4C4C4"/>
</mask>
<g mask="url(#mask0)">
<path d="M98.9609 7.43207C98.8627 7.12833 98.5933 6.91261 98.2745 6.88388L93.9451 6.49077L92.2332 2.48375C92.107 2.19009 91.8195 2 91.5001 2C91.1806 2 90.8932 2.19009 90.7669 2.48444L89.055 6.49077L84.7249 6.88388C84.4067 6.91329 84.138 7.12833 84.0393 7.43207C83.9405 7.7358 84.0317 8.06894 84.2724 8.27895L87.5449 11.149L86.5799 15.3997C86.5093 15.7123 86.6306 16.0354 86.8899 16.2228C87.0293 16.3235 87.1924 16.3748 87.3569 16.3748C87.4987 16.3748 87.6393 16.3366 87.7655 16.261L91.5001 14.0291L95.2332 16.261C95.5064 16.4254 95.8507 16.4104 96.1095 16.2228C96.3689 16.0348 96.4901 15.7116 96.4195 15.3997L95.4545 11.149L98.7271 8.27952C98.9677 8.06894 99.0596 7.73637 98.9609 7.43207Z" fill="#FFB800"/>
</g>
</svg>
