<svg width="65" height="60" viewBox="0 0 65 60" fill="none" xmlns="http://www.w3.org/2000/svg">
<g clip-path="url(#clip0)">
<path d="M21.3725 55.8121C15.875 55.7261 10.7198 54.0383 6.85873 51.0615C2.9131 48.0182 0.775464 43.9943 0.842092 39.732C0.908721 35.4697 3.17109 31.5146 7.20991 28.5961C11.1621 25.7414 16.3676 24.2155 21.8651 24.3015C27.3626 24.3874 32.5178 26.0752 36.3788 29.0521C40.3245 32.0953 42.4622 36.1167 42.3955 40.3815C42.3288 44.6464 40.0665 48.599 36.0277 51.5174C32.0754 54.3722 26.87 55.898 21.3725 55.8121ZM21.834 26.2862C11.4784 26.1243 2.95691 32.1696 2.83821 39.7632C2.7195 47.3568 11.0479 53.6654 21.4035 53.8273C31.7592 53.9892 40.2807 47.9439 40.3994 40.3503C40.5181 32.7568 32.1897 26.4481 21.834 26.2862Z" fill="#4ABBC1"/>
<path d="M43.6228 35.3313C43.1697 35.3242 42.7642 35.0074 42.6631 34.5502C42.5456 34.0152 42.8887 33.4873 43.4268 33.3705C51.3089 31.6712 56.6673 26.4752 56.7616 20.4434C56.8803 12.8498 48.5519 6.54117 38.1963 6.37929C27.8407 6.21741 19.3192 12.2627 19.2005 19.8563C19.1907 20.482 19.2387 21.1136 19.3449 21.7311C19.4372 22.2708 19.0716 22.7833 18.5264 22.8749C17.9836 22.9665 17.4681 22.603 17.3759 22.0608C17.2514 21.3229 17.1927 20.5709 17.2044 19.8226C17.271 15.5602 19.5334 11.6051 23.5722 8.68667C27.5244 5.83194 32.7299 4.30611 38.2274 4.39204C43.7249 4.47798 48.8801 6.16577 52.7411 9.14264C56.6868 12.1859 58.8244 16.2098 58.7578 20.4721C58.7034 23.9536 57.1919 27.227 54.3875 29.9394C51.693 32.5459 48.0484 34.4041 43.8497 35.3073C43.7739 35.3236 43.6958 35.3324 43.6228 35.3313Z" fill="#4ABBC1"/>
<path d="M13.3925 40.9196C13.166 40.916 12.9406 40.8374 12.7568 40.6793C12.3394 40.3223 12.2913 39.6957 12.6502 39.2807C12.7656 39.1473 15.519 35.996 20.3695 33.3356C20.8521 33.0702 21.4586 33.2449 21.7256 33.7248C21.9925 34.2046 21.8169 34.8077 21.3344 35.073C16.819 37.5509 14.1915 40.5465 14.1633 40.5761C13.9633 40.8083 13.6795 40.924 13.3925 40.9196Z" fill="#4ABBC1"/>
<path d="M24.5515 33.4812C24.1563 33.475 23.7849 33.2339 23.6349 32.8435C23.439 32.3322 23.6972 31.758 24.2114 31.5632C25.8779 30.9309 27.5874 30.4569 29.2991 30.1557C29.842 30.0591 30.36 30.4201 30.4573 30.9599C30.5546 31.4997 30.1916 32.0147 29.6487 32.1114C28.0607 32.392 26.4727 32.8303 24.9226 33.4194C24.7986 33.46 24.6748 33.4831 24.5515 33.4812Z" fill="#4ABBC1"/>
<path d="M28.9399 41.411C28.6529 41.4065 28.3729 41.2794 28.1777 41.0411C28.1209 40.9726 22.4027 34.0638 12.9692 32.0938C12.4296 31.9803 12.0829 31.4541 12.197 30.9177C12.3111 30.3812 12.8402 30.039 13.3798 30.1501C23.5335 32.2715 29.4836 39.4868 29.7331 39.7936C30.0789 40.2196 30.0112 40.8444 29.5829 41.1882C29.3916 41.3429 29.1639 41.4145 28.9399 41.411Z" fill="#4ABBC1"/>
<path d="M29.7092 21.6427C29.4852 21.6392 29.2623 21.5606 29.0784 21.405C28.6585 21.0505 28.6078 20.4238 28.9668 20.0064C29.072 19.8828 31.5873 16.9831 36.2105 14.5294C36.6954 14.2716 37.3019 14.4538 37.5612 14.9386C37.8205 15.4208 37.6374 16.0237 37.1499 16.2815C32.8568 18.5601 30.5107 21.2672 30.4851 21.2943C30.285 21.529 29.9961 21.6472 29.7092 21.6427Z" fill="#4ABBC1"/>
<path d="M40.1366 14.6462C39.7288 14.6398 39.3526 14.3836 39.2104 13.9808C39.0297 13.4622 39.3028 12.8982 39.8244 12.7161C40.8268 12.3688 42.2648 12.0283 44.1028 11.704C44.6456 11.6074 45.1637 11.9685 45.261 12.5082C45.3583 13.048 44.9952 13.563 44.4524 13.6597C42.7179 13.9655 41.3836 14.2801 40.4824 14.5915C40.3685 14.6298 40.2499 14.6479 40.1366 14.6462Z" fill="#4ABBC1"/>
<path d="M43.7946 22.0888C43.5076 22.0843 43.2251 21.9572 43.0325 21.7189C42.983 21.658 37.8183 15.4239 29.3083 13.6461C28.7688 13.5325 28.4245 13.0064 28.5361 12.4699C28.6503 11.9334 29.1768 11.5912 29.7189 11.7023C38.9491 13.6315 44.3605 20.1925 44.5853 20.4714C44.9311 20.8974 44.8634 21.5222 44.4351 21.866C44.2463 22.0208 44.0186 22.0923 43.7946 22.0888Z" fill="#4ABBC1"/>
</g>
<defs>
<clipPath id="clip0">
<rect width="64.0084" height="57.4193" fill="white" transform="translate(1.44849 0.945679) rotate(0.895574)"/>
</clipPath>
</defs>
</svg>
