<svg width="58" height="46" viewBox="0 0 58 46" fill="none" xmlns="http://www.w3.org/2000/svg">
<path d="M57.1011 41.502C57.0562 41.502 57.0068 41.4975 56.9618 41.493L13.9927 34.7554C13.7231 34.7148 13.4849 34.5481 13.35 34.3092L6.52335 22.1906C6.35257 21.8886 6.37055 21.5191 6.56829 21.2351C6.76604 20.9512 7.1076 20.8025 7.44466 20.8566L57.2405 28.7118C57.6764 28.7794 58 29.158 58 29.6042V40.6007C58 40.8621 57.8831 41.1145 57.6854 41.2857C57.5236 41.4254 57.3169 41.502 57.1011 41.502ZM14.7028 33.0428L56.2068 39.5461V30.3703L9.00415 22.9252L14.7028 33.0428Z" fill="#4ABBC1"/>
<path d="M57.1013 45.4456C57.0564 45.4456 57.0114 45.4411 56.971 45.4366L11.8761 38.7035C11.602 38.663 11.3638 38.4962 11.2245 38.2528L1.74621 21.4336C1.72823 21.4066 1.71475 21.375 1.70126 21.3435C1.63835 21.1903 0.14627 17.6029 1.71025 14.1372C3.12593 11.0005 5.56179 9.76562 7.51227 9.8242C8.41111 7.89531 10.6852 5.33096 14.6536 5.83572C15.831 4.23131 18.5051 2.20778 22.3701 3.2218C23.3409 2.27989 25.9205 0.139176 28.9856 0.48169C29.3047 0.504224 31.9023 0.765616 33.5112 2.79366C34.6168 4.19075 34.9853 6.04754 34.5988 8.31895L32.8281 8.01699C33.1247 6.27288 32.8821 4.89381 32.1046 3.91584C30.9361 2.44213 28.8687 2.27989 28.8508 2.27989C28.8328 2.27989 28.8193 2.27989 28.8013 2.27538C25.9026 1.93737 23.3364 4.80818 23.3094 4.83973C23.0712 5.11013 22.6982 5.21379 22.3566 5.10112C17.9973 3.67248 15.9479 7.12465 15.8625 7.27338C15.6693 7.60688 15.2828 7.78264 14.9097 7.71053C10.3796 6.80918 8.99985 10.9103 8.94592 11.0861C8.80211 11.5323 8.3392 11.7937 7.88529 11.6855C6.53703 11.3745 4.5461 12.2353 3.35064 14.8808C2.18664 17.4587 3.20233 20.2348 3.34165 20.5954L12.5727 36.9865L56.2025 43.4987V40.6009H58.0002V44.5488C58.0002 44.8102 57.8878 45.0581 57.6901 45.2293C57.5238 45.369 57.317 45.4456 57.1013 45.4456Z" fill="#4ABBC1"/>
<path d="M56.4945 30.2667L33.3584 9.06241C15.9029 8.69736 8.16834 22.0554 8.09194 22.1906L6.52795 21.3028C6.60885 21.154 14.9546 6.70538 33.7494 7.26421C33.9651 7.26872 34.1718 7.35435 34.3291 7.49857L57.7169 28.9327L56.4945 30.2667Z" fill="#4ABBC1"/>
</svg>
