<svg width="52" height="61" viewBox="0 0 52 61" fill="none" xmlns="http://www.w3.org/2000/svg">
<path d="M29.6413 11.6797C29.6413 9.64603 28.0082 7.99219 26 7.99219C23.9919 7.99219 22.3588 9.64603 22.3588 11.6797C22.3588 13.7133 23.9919 15.3672 26 15.3672C28.0082 15.3672 29.6413 13.7133 29.6413 11.6797ZM24.1794 11.6797C24.1794 10.6629 24.996 9.83594 26 9.83594C27.0041 9.83594 27.8207 10.6629 27.8207 11.6797C27.8207 12.6965 27.0041 13.5234 26 13.5234C24.996 13.5234 24.1794 12.6965 24.1794 11.6797Z" fill="white"/>
<path d="M50.9612 60.5243C51.4646 60.5243 51.8715 60.1122 51.8715 59.6024V53.1797C51.8715 53.176 51.8697 53.1733 51.8697 53.1705C51.8679 53.0534 51.847 52.9373 51.8014 52.8276C51.755 52.7142 51.6886 52.6119 51.6039 52.527L47.9681 48.8414C47.8843 48.7556 47.7833 48.6884 47.6713 48.6413C47.5602 48.5943 47.4419 48.5703 47.3236 48.5703L4.71447 48.5703C4.59613 48.5703 4.47779 48.5942 4.36673 48.6412C4.25476 48.6883 4.15371 48.7556 4.06996 48.8413L0.434139 52.5269C0.349479 52.6118 0.283025 52.7141 0.236599 52.8275C0.191993 52.9372 0.169236 53.0533 0.168325 53.1704C0.168325 53.1732 0.166504 53.1759 0.166504 53.1796V59.6171C0.166504 60.1269 0.573417 60.539 1.07683 60.539C1.58023 60.539 1.98715 60.1269 1.98715 59.6171V54.1024L22.3588 54.1025V56.8682C22.3588 57.3779 22.7657 57.79 23.2691 57.79H28.731C29.2344 57.79 29.6413 57.3779 29.6413 56.8682V54.1025L50.0509 54.1025V59.6034C50.0509 60.1122 50.4578 60.5243 50.9612 60.5243ZM22.5609 52.2588L3.27252 52.2587L5.09134 50.4149L23.0233 50.415L22.5609 52.2588ZM24.9022 50.415H27.1216L27.5695 52.2588H24.4398L24.9022 50.415ZM27.8207 55.9463H24.1794V54.1025H27.8207V55.9463ZM29.4438 52.2588L28.9959 50.415L46.9467 50.415L48.7655 52.2588L29.4438 52.2588Z" fill="white"/>
<path d="M13.2572 40.0253C8.73838 40.0253 5.0625 43.7479 5.0625 48.324L5.06341 48.8363C5.06341 49.3461 5.47123 49.7582 5.97373 49.7582C6.47714 49.7582 6.88405 49.3452 6.88405 48.8363L6.88314 48.324C6.88314 44.7647 9.74246 41.8691 13.2572 41.8691H19.4128L22.862 43.6142C22.8775 43.6216 22.893 43.6188 22.9084 43.6252C23.0213 43.6759 23.1406 43.711 23.2671 43.7119H23.2689L23.2753 43.711C23.3645 43.7101 23.451 43.6944 23.5366 43.6686C23.5429 43.6658 23.5502 43.6676 23.5566 43.6649L25.9999 42.8407L28.4441 43.6649C28.4514 43.6676 28.4587 43.6658 28.4641 43.6686C28.5497 43.6944 28.6362 43.7101 28.7254 43.711L28.7308 43.7119H28.7336C28.8601 43.711 28.9794 43.6759 29.0922 43.6252C29.1077 43.6188 29.1232 43.6216 29.1387 43.6142L32.5879 41.8691H38.7435C42.2582 41.8691 45.1175 44.7647 45.1175 48.324V48.8363C45.1175 49.3461 45.5245 49.7582 46.0279 49.7582C46.5313 49.7582 46.9382 49.3461 46.9382 48.8363V48.324C46.9382 43.7479 43.2623 40.0253 38.7435 40.0253H33.2825V36.1857C37.6283 33.6312 40.565 28.8762 40.565 23.4316V19.7422H41.4753C41.591 19.7422 41.7047 19.7173 41.8131 19.6731C41.8604 19.6537 41.8977 19.6205 41.9405 19.5947C41.9897 19.5652 42.0425 19.544 42.0871 19.5035C42.0935 19.4979 42.0953 19.4906 42.1007 19.4841C42.1508 19.4371 42.1836 19.3772 42.2209 19.3191C42.2491 19.2758 42.2855 19.238 42.3065 19.1909C42.3256 19.1476 42.3274 19.0978 42.3401 19.0517C42.3593 18.9817 42.3802 18.9135 42.382 18.8406C42.382 18.8333 42.3866 18.8268 42.3866 18.8204C42.3866 18.7752 42.3675 18.7365 42.362 18.6931C42.352 18.624 42.3456 18.5558 42.321 18.4894C42.2974 18.4258 42.2573 18.3742 42.2209 18.3179C42.1963 18.2792 42.1836 18.235 42.1517 18.1999C42.1016 18.1437 41.6465 17.6551 40.5668 17.0365V15.1328C40.5668 7.31166 34.5178 0.90924 26.912 0.429865C26.2891 0.382812 26.3071 0.382813 25.9999 0.382813C25.6925 0.382813 25.711 0.3828 25.0914 0.429865C17.4838 0.90924 11.4347 7.31166 11.4347 15.1328V17.0374C10.3542 17.656 9.89904 18.1446 9.84988 18.2008C9.81802 18.2368 9.80527 18.2811 9.77978 18.3198C9.74337 18.376 9.70423 18.4267 9.68056 18.4894C9.65871 18.5484 9.65416 18.6102 9.64415 18.6719C9.63504 18.7226 9.61411 18.7678 9.61411 18.8204C9.61411 18.8286 9.61866 18.836 9.61866 18.8443C9.62048 18.8867 9.63686 18.9264 9.64324 18.9678C9.69785 19.296 9.90905 19.5652 10.2104 19.6786C10.2231 19.6832 10.2359 19.6823 10.2486 19.686C10.3369 19.7155 10.427 19.7422 10.5244 19.7422H11.4347V23.4316C11.4347 28.8762 14.3714 33.6303 18.7173 36.1857V40.0253H13.2572ZM31.4618 40.3775L28.6617 41.7935L26.2875 40.9942C26.2511 40.9822 26.2147 40.9878 26.1783 40.9804C26.12 40.9684 26.0618 40.9601 26.0008 40.9601C25.9407 40.9601 25.8825 40.9693 25.8242 40.9804C25.7878 40.9878 25.7505 40.9822 25.714 40.9942L23.3399 41.7935L20.538 40.3775V37.0956C22.2257 37.7907 24.0682 38.1816 25.9999 38.1816C27.9316 38.1816 29.7741 37.7907 31.4618 37.0956V40.3775ZM13.2554 15.1328C13.2554 8.01597 18.9722 2.2266 25.9999 2.2266C33.0276 2.2266 38.7444 8.01597 38.7444 15.1328V16.17C36.2847 15.1845 32.2711 14.211 25.9999 14.211C19.7287 14.211 15.7151 15.1845 13.2554 16.17V15.1328ZM38.0935 17.8985H13.9081C16.1256 17.0033 19.8998 16.0547 25.9999 16.0547C32.1027 16.0547 35.8787 17.0043 38.0935 17.8985ZM13.2554 23.4316V19.7422H38.7444V23.4316C38.7444 30.5484 33.0276 36.3378 25.9999 36.3378C18.9722 36.3378 13.2554 30.5484 13.2554 23.4316Z" fill="white"/>
<path d="M22.9469 30.5679C22.9469 30.5679 24.3861 31.647 26.0146 31.647C27.6432 31.647 29.0824 30.5679 29.0824 30.5679" stroke="white" stroke-width="2" stroke-linecap="round" stroke-linejoin="round"/>
<path d="M19.1963 23.6545H21.7064" stroke="white" stroke-width="2" stroke-linecap="round" stroke-linejoin="round"/>
<path d="M30.3226 23.6545H32.8327" stroke="white" stroke-width="2" stroke-linecap="round" stroke-linejoin="round"/>
</svg>
