<svg width="44" height="26" viewBox="0 0 44 26" fill="none" xmlns="http://www.w3.org/2000/svg">
<rect width="44" height="26" rx="7" fill="#FF2E47"/>
<path d="M11.143 18.084C11.563 18.084 11.815 17.916 12.165 17.44L14.391 14.36L16.673 17.496C16.967 17.916 17.219 18.084 17.639 18.084C18.185 18.084 18.619 17.692 18.619 17.104C18.619 16.67 18.353 16.39 18.143 16.082L15.609 12.638L17.737 9.754C17.919 9.516 18.101 9.236 18.101 8.872C18.101 8.382 17.695 7.948 17.065 7.948C16.659 7.948 16.379 8.172 16.085 8.592L14.391 10.972L12.613 8.494C12.361 8.13 12.081 7.948 11.731 7.948C11.101 7.948 10.681 8.368 10.681 8.872C10.681 9.222 10.877 9.544 11.059 9.768L13.187 12.638L10.401 16.432C10.219 16.67 10.163 16.88 10.163 17.104C10.163 17.65 10.597 18.084 11.143 18.084ZM20.6686 18.084C21.1166 18.084 21.3686 17.972 21.9146 17.216L24.4766 13.646H24.5046V17.076C24.5046 17.608 24.8966 18.084 25.4706 18.084C26.0446 18.084 26.4506 17.608 26.4506 17.076V11.448C26.4506 10.888 26.0866 10.454 25.5686 10.454C25.0926 10.454 24.8126 10.636 24.3226 11.308L21.7046 15.004H21.6766V11.462C21.6766 10.916 21.2706 10.454 20.7106 10.454C20.1366 10.454 19.7306 10.902 19.7306 11.49V17.076C19.7306 17.65 20.0526 18.084 20.6686 18.084ZM30.7129 18.084C31.3009 18.084 31.6929 17.608 31.6929 17.076V12.358H32.8829C33.4429 12.358 33.8629 12.092 33.8629 11.448C33.8629 10.818 33.4289 10.552 32.8829 10.552H28.5149C27.9689 10.552 27.5349 10.818 27.5349 11.448C27.5349 12.092 27.9549 12.358 28.5149 12.358H29.7329V17.076C29.7329 17.608 30.1389 18.084 30.7129 18.084Z" fill="white"/>
</svg>
