<svg width="17" height="17" viewBox="0 0 17 17" fill="none" xmlns="http://www.w3.org/2000/svg">
<path d="M13.75 1.75H3.25C2.42157 1.75 1.75 2.42157 1.75 3.25V13.75C1.75 14.5784 2.42157 15.25 3.25 15.25H13.75C14.5784 15.25 15.25 14.5784 15.25 13.75V3.25C15.25 2.42157 14.5784 1.75 13.75 1.75Z" stroke="#4ABBC1" stroke-width="2" stroke-linecap="round" stroke-linejoin="round"/>
<path d="M5.875 7C6.49632 7 7 6.49632 7 5.875C7 5.25368 6.49632 4.75 5.875 4.75C5.25368 4.75 4.75 5.25368 4.75 5.875C4.75 6.49632 5.25368 7 5.875 7Z" stroke="#4ABBC1" stroke-width="2" stroke-linecap="round" stroke-linejoin="round"/>
<path d="M15.25 10.75L11.5 7L3.25 15.25" stroke="#4ABBC1" stroke-width="2" stroke-linecap="round" stroke-linejoin="round"/>
</svg>
