<svg width="79" height="26" viewBox="0 0 79 26" fill="none" xmlns="http://www.w3.org/2000/svg">
<rect width="79" height="26" rx="7" fill="#44A5FF"/>
<path d="M11.9958 18.084C12.6118 18.084 13.0038 17.692 13.0038 17.034V13.828H17.4838V17.034C17.4838 17.692 17.8898 18.084 18.4918 18.084C19.0938 18.084 19.4998 17.692 19.4998 17.034V8.998C19.4998 8.34 19.0938 7.948 18.4918 7.948C17.8898 7.948 17.4838 8.34 17.4838 8.998V11.952H13.0038V8.998C13.0038 8.34 12.6118 7.948 11.9958 7.948C11.3938 7.948 10.9878 8.34 10.9878 8.998V17.034C10.9878 17.692 11.3938 18.084 11.9958 18.084ZM24.4875 18.196C26.6295 18.196 28.0715 16.502 28.0715 14.276C28.0715 12.008 26.5875 10.356 24.4875 10.356C22.3595 10.356 20.9035 12.05 20.9035 14.276C20.9035 16.502 22.3455 18.196 24.4875 18.196ZM24.4875 16.348C23.4795 16.348 22.8635 15.48 22.8635 14.276C22.8635 13.072 23.4935 12.204 24.4735 12.204C25.5095 12.204 26.1115 13.086 26.1115 14.276C26.1115 15.48 25.4815 16.348 24.4875 16.348ZM30.4201 18H32.7861C34.8861 18 35.9921 17.23 35.9921 15.76C35.9921 14.808 35.3901 14.108 34.3541 13.954V13.94C35.0821 13.688 35.4741 13.128 35.4741 12.358C35.4741 11.168 34.5081 10.482 33.0381 10.482H30.4341C29.8741 10.482 29.4261 10.888 29.4261 11.49V17.02C29.4261 17.58 29.8601 18 30.4201 18ZM31.3721 13.464V12.12H32.7721C33.3041 12.12 33.5981 12.358 33.5981 12.778C33.5981 13.212 33.2901 13.464 32.6741 13.464H31.3721ZM31.3721 16.362V14.864H32.9961C33.6821 14.864 34.0321 15.172 34.0321 15.634C34.0321 16.124 33.6401 16.362 33.0241 16.362H31.3721ZM38.3326 18.084C38.7806 18.084 39.0326 17.972 39.5786 17.216L42.1406 13.646H42.1686V17.076C42.1686 17.608 42.5606 18.084 43.1346 18.084C43.7086 18.084 44.1146 17.608 44.1146 17.076V11.448C44.1146 10.888 43.7506 10.454 43.2326 10.454C42.7566 10.454 42.4766 10.636 41.9866 11.308L39.3686 15.004H39.3406V11.462C39.3406 10.916 38.9346 10.454 38.3746 10.454C37.8006 10.454 37.3946 10.902 37.3946 11.49V17.076C37.3946 17.65 37.7166 18.084 38.3326 18.084ZM46.767 18.084C47.327 18.084 47.733 17.636 47.733 17.076V14.934H50.421V17.076C50.421 17.608 50.827 18.084 51.401 18.084C51.961 18.084 52.367 17.608 52.367 17.062V11.49C52.367 10.916 51.961 10.454 51.401 10.454C50.827 10.454 50.421 10.93 50.421 11.462V13.31H47.733V11.462C47.733 10.916 47.327 10.454 46.767 10.454C46.193 10.454 45.787 10.916 45.787 11.462V17.076C45.787 17.636 46.193 18.084 46.767 18.084ZM55.0089 18.084C55.5689 18.084 55.9749 17.636 55.9749 17.076V14.654L58.2149 17.3C58.8309 18.042 58.9569 18.084 59.4329 18.084C59.9229 18.084 60.3429 17.706 60.3429 17.244C60.3429 16.978 60.2729 16.81 59.8809 16.334L57.8089 13.94L59.4609 12.428C59.9649 11.938 60.1469 11.686 60.1469 11.336C60.1469 10.86 59.7689 10.468 59.2229 10.468C58.9009 10.468 58.6349 10.608 58.2709 10.986L55.9749 13.282V11.476C55.9749 10.916 55.5689 10.468 55.0089 10.468C54.4349 10.468 54.0289 10.916 54.0289 11.476V17.076C54.0289 17.636 54.4349 18.084 55.0089 18.084ZM64.2148 18.196C65.0548 18.196 65.6568 17.916 66.1328 17.286H66.1608L66.1888 17.44C66.2868 17.776 66.5528 18.084 67.0848 18.084C67.6588 18.084 68.0368 17.636 68.0368 17.076V11.476C68.0368 10.916 67.6588 10.468 67.0848 10.468C66.5528 10.468 66.2868 10.776 66.1888 11.112L66.1608 11.266H66.1328C65.6288 10.636 65.0548 10.356 64.2148 10.356C62.3248 10.356 60.8828 12.078 60.8828 14.276C60.8828 16.488 62.3108 18.196 64.2148 18.196ZM64.4668 16.348C63.4728 16.348 62.8428 15.48 62.8428 14.276C62.8428 13.086 63.4728 12.204 64.4528 12.204C65.4888 12.204 66.0908 13.086 66.0908 14.276C66.0908 15.48 65.4748 16.348 64.4668 16.348Z" fill="white"/>
</svg>
