<svg width="31" height="31" viewBox="0 0 31 31" fill="none" xmlns="http://www.w3.org/2000/svg">
<g filter="url(#filter0_d)">
<circle cx="15.6122" cy="9.15303" r="8.8903" fill="#70BF58"/>
</g>
<g clip-path="url(#clip0)">
<path fill-rule="evenodd" clip-rule="evenodd" d="M19.3936 4.94824C18.9025 4.45386 18.3181 4.06186 17.6744 3.79494C17.0307 3.52802 16.3404 3.3915 15.6435 3.39327C12.7214 3.39327 10.3426 5.77149 10.3414 8.69481C10.3414 9.62909 10.5853 10.5409 11.0489 11.3453L10.2971 14.092L13.1076 13.3544C13.885 13.7776 14.756 13.9995 15.6412 13.9999H15.6435C18.5651 13.9999 20.9439 11.6217 20.9451 8.69835C20.9471 8.00176 20.811 7.31169 20.5447 6.66801C20.2784 6.02433 19.8872 5.43981 19.3936 4.94824ZM15.6435 13.1052H15.6418C14.8525 13.1053 14.0777 12.8929 13.3988 12.4904L13.2381 12.3947L11.5704 12.8323L12.0151 11.2065L11.9105 11.04C11.4693 10.3374 11.2357 9.52443 11.2367 8.69481C11.2379 6.2652 13.2145 4.28857 15.6453 4.28857C16.2242 4.28728 16.7976 4.40083 17.3323 4.62263C17.8671 4.84443 18.3525 5.17008 18.7606 5.58073C19.1708 5.98943 19.4959 6.47539 19.7172 7.0105C19.9385 7.54562 20.0515 8.11929 20.0498 8.69835C20.0486 11.128 18.0719 13.1052 15.6435 13.1052ZM18.0607 9.80449C17.9278 9.73775 17.277 9.41766 17.1554 9.37337C17.0343 9.32908 16.9463 9.30723 16.8577 9.43951C16.7692 9.5718 16.5152 9.87004 16.4378 9.95862C16.3605 10.0472 16.2831 10.0578 16.1508 9.9917C16.0185 9.92555 15.5916 9.78559 15.0854 9.33439C14.6915 8.983 14.4258 8.54953 14.3484 8.41665C14.271 8.28377 14.3401 8.21231 14.4069 8.14617C14.4665 8.08711 14.5392 7.99144 14.6053 7.91407C14.6715 7.83671 14.6933 7.78179 14.7376 7.6932C14.7819 7.60462 14.76 7.52725 14.7264 7.46111C14.6933 7.39437 14.4281 6.74238 14.3177 6.47722C14.2108 6.22032 14.1016 6.25457 14.0201 6.25103C13.9356 6.24758 13.8512 6.246 13.7667 6.24631C13.6995 6.24802 13.6334 6.26359 13.5726 6.29205C13.5117 6.3205 13.4573 6.36122 13.4129 6.41167C13.2913 6.54454 12.9494 6.86463 12.9494 7.51662C12.9494 8.16861 13.4242 8.79875 13.4903 8.88733C13.5565 8.97592 14.4246 10.3136 15.7534 10.8876C16.0699 11.024 16.3168 11.1055 16.5087 11.1669C16.8258 11.2679 17.1146 11.2532 17.3432 11.2195C17.5977 11.1817 18.1269 10.8994 18.2373 10.5899C18.3477 10.2805 18.3477 10.0153 18.3147 9.95981C18.2816 9.90429 18.1924 9.87063 18.0607 9.80449Z" fill="white"/>
</g>
<defs>
<filter id="filter0_d" x="0.721924" y="0.262726" width="29.7806" height="29.7806" filterUnits="userSpaceOnUse" color-interpolation-filters="sRGB">
<feFlood flood-opacity="0" result="BackgroundImageFix"/>
<feColorMatrix in="SourceAlpha" type="matrix" values="0 0 0 0 0 0 0 0 0 0 0 0 0 0 0 0 0 0 127 0"/>
<feMorphology radius="6" operator="erode" in="SourceAlpha" result="effect1_dropShadow"/>
<feOffset dy="6"/>
<feGaussianBlur stdDeviation="6"/>
<feColorMatrix type="matrix" values="0 0 0 0 0.165764 0 0 0 0 0.43245 0 0 0 0 0.516667 0 0 0 0.25 0"/>
<feBlend mode="normal" in2="BackgroundImageFix" result="effect1_dropShadow"/>
<feBlend mode="normal" in="SourceGraphic" in2="effect1_dropShadow" result="shape"/>
</filter>
<clipPath id="clip0">
<rect width="10.8387" height="10.8387" fill="white" transform="translate(10.1929 3.28903)"/>
</clipPath>
</defs>
</svg>
