<svg width="26" height="26" viewBox="0 0 26 26" fill="none" xmlns="http://www.w3.org/2000/svg">
<rect y="-0.000976562" width="26" height="26" rx="7" fill="#FCF18C"/>
<path d="M12.9082 19.1345C11.6149 19.1346 10.3739 18.6242 9.45482 17.7143C8.53575 16.8045 8.01293 15.5686 8 14.2754C8 10.9132 12.3254 7.17072 12.5094 7.01121C12.6206 6.91615 12.762 6.86392 12.9082 6.86392C13.0545 6.86392 13.1959 6.91615 13.307 7.01121C13.5218 7.17072 17.8164 10.9132 17.8164 14.2754C17.8035 15.5686 17.2807 16.8045 16.3616 17.7143C15.4426 18.6242 14.2015 19.1346 12.9082 19.1345Z" stroke="#5D2524" stroke-width="2"/>
<path d="M7.38185 9.48779L19.2105 17.5811" stroke="#5D2524" stroke-width="2" stroke-linecap="round"/>
</svg>
