<svg width="1440" height="8" viewBox="0 0 1440 8" fill="none" xmlns="http://www.w3.org/2000/svg">
<path d="M0 0V1.45455C0 5.0695 4.02943 8 9 8C13.9706 8 18 5.0695 18 1.45455V0H0Z" fill="white"/>
<path d="M216 0V1.45455C216 5.0695 220.029 8 225 8C229.971 8 234 5.0695 234 1.45455V0H216Z" fill="white"/>
<path d="M108 0V1.45455C108 5.0695 112.029 8 117 8C121.971 8 126 5.0695 126 1.45455V0H108Z" fill="white"/>
<path d="M324 0V1.45455C324 5.0695 328.029 8 333 8C337.971 8 342 5.0695 342 1.45455V0H324Z" fill="white"/>
<path d="M54 0V1.45455C54 5.0695 58.0294 8 63 8C67.9706 8 72 5.0695 72 1.45455V0H54Z" fill="white"/>
<path d="M270 0V1.45455C270 5.0695 274.029 8 279 8C283.971 8 288 5.0695 288 1.45455V0H270Z" fill="white"/>
<path d="M162 0V1.45455C162 5.0695 166.029 8 171 8C175.971 8 180 5.0695 180 1.45455V0H162Z" fill="white"/>
<path d="M378 0V1.45455C378 5.0695 382.029 8 387 8C391.971 8 396 5.0695 396 1.45455V0H378Z" fill="white"/>
<path d="M18 0V1.45455C18 5.0695 22.0294 8 27 8C31.9706 8 36 5.0695 36 1.45455V0H18Z" fill="white"/>
<path d="M234 0V1.45455C234 5.0695 238.029 8 243 8C247.971 8 252 5.0695 252 1.45455V0H234Z" fill="white"/>
<path d="M126 0V1.45455C126 5.0695 130.029 8 135 8C139.971 8 144 5.0695 144 1.45455V0H126Z" fill="white"/>
<path d="M342 0V1.45455C342 5.0695 346.029 8 351 8C355.971 8 360 5.0695 360 1.45455V0H342Z" fill="white"/>
<path d="M72 0V1.45455C72 5.0695 76.0294 8 81 8C85.9706 8 90 5.0695 90 1.45455V0H72Z" fill="white"/>
<path d="M288 0V1.45455C288 5.0695 292.029 8 297 8C301.971 8 306 5.0695 306 1.45455V0H288Z" fill="white"/>
<path d="M180 0V1.45455C180 5.0695 184.029 8 189 8C193.971 8 198 5.0695 198 1.45455V0H180Z" fill="white"/>
<path d="M396 0V1.45455C396 5.0695 400.029 8 405 8C409.971 8 414 5.0695 414 1.45455V0H396Z" fill="white"/>
<path d="M36 0V1.45455C36 5.0695 40.0294 8 45 8C49.9706 8 54 5.0695 54 1.45455V0H36Z" fill="white"/>
<path d="M252 0V1.45455C252 5.0695 256.029 8 261 8C265.971 8 270 5.0695 270 1.45455V0H252Z" fill="white"/>
<path d="M144 0V1.45455C144 5.0695 148.029 8 153 8C157.971 8 162 5.0695 162 1.45455V0H144Z" fill="white"/>
<path d="M360 0V1.45455C360 5.0695 364.029 8 369 8C373.971 8 378 5.0695 378 1.45455V0H360Z" fill="white"/>
<path d="M90 0V1.45455C90 5.0695 94.0294 8 99 8C103.971 8 108 5.0695 108 1.45455V0H90Z" fill="white"/>
<path d="M306 0V1.45455C306 5.0695 310.029 8 315 8C319.971 8 324 5.0695 324 1.45455V0H306Z" fill="white"/>
<path d="M198 0V1.45455C198 5.0695 202.029 8 207 8C211.971 8 216 5.0695 216 1.45455V0H198Z" fill="white"/>
<path d="M414 0V1.45455C414 5.0695 418.029 8 423 8C427.971 8 432 5.0695 432 1.45455V0H414Z" fill="white"/>
<path d="M432 0V1.45455C432 5.0695 436.029 8 441 8C445.971 8 450 5.0695 450 1.45455V0H432Z" fill="white"/>
<path d="M648 0V1.45455C648 5.0695 652.029 8 657 8C661.971 8 666 5.0695 666 1.45455V0H648Z" fill="white"/>
<path d="M540 0V1.45455C540 5.0695 544.029 8 549 8C553.971 8 558 5.0695 558 1.45455V0H540Z" fill="white"/>
<path d="M756 0V1.45455C756 5.0695 760.029 8 765 8C769.971 8 774 5.0695 774 1.45455V0H756Z" fill="white"/>
<path d="M486 0V1.45455C486 5.0695 490.029 8 495 8C499.971 8 504 5.0695 504 1.45455V0H486Z" fill="white"/>
<path d="M702 0V1.45455C702 5.0695 706.029 8 711 8C715.971 8 720 5.0695 720 1.45455V0H702Z" fill="white"/>
<path d="M594 0V1.45455C594 5.0695 598.029 8 603 8C607.971 8 612 5.0695 612 1.45455V0H594Z" fill="white"/>
<path d="M810 0V1.45455C810 5.0695 814.029 8 819 8C823.971 8 828 5.0695 828 1.45455V0H810Z" fill="white"/>
<path d="M450 0V1.45455C450 5.0695 454.029 8 459 8C463.971 8 468 5.0695 468 1.45455V0H450Z" fill="white"/>
<path d="M666 0V1.45455C666 5.0695 670.029 8 675 8C679.971 8 684 5.0695 684 1.45455V0H666Z" fill="white"/>
<path d="M558 0V1.45455C558 5.0695 562.029 8 567 8C571.971 8 576 5.0695 576 1.45455V0H558Z" fill="white"/>
<path d="M774 0V1.45455C774 5.0695 778.029 8 783 8C787.971 8 792 5.0695 792 1.45455V0H774Z" fill="white"/>
<path d="M504 0V1.45455C504 5.0695 508.029 8 513 8C517.971 8 522 5.0695 522 1.45455V0H504Z" fill="white"/>
<path d="M720 0V1.45455C720 5.0695 724.029 8 729 8C733.971 8 738 5.0695 738 1.45455V0H720Z" fill="white"/>
<path d="M612 0V1.45455C612 5.0695 616.029 8 621 8C625.971 8 630 5.0695 630 1.45455V0H612Z" fill="white"/>
<path d="M828 0V1.45455C828 5.0695 832.029 8 837 8C841.971 8 846 5.0695 846 1.45455V0H828Z" fill="white"/>
<path d="M468 0V1.45455C468 5.0695 472.029 8 477 8C481.971 8 486 5.0695 486 1.45455V0H468Z" fill="white"/>
<path d="M684 0V1.45455C684 5.0695 688.029 8 693 8C697.971 8 702 5.0695 702 1.45455V0H684Z" fill="white"/>
<path d="M576 0V1.45455C576 5.0695 580.029 8 585 8C589.971 8 594 5.0695 594 1.45455V0H576Z" fill="white"/>
<path d="M792 0V1.45455C792 5.0695 796.029 8 801 8C805.971 8 810 5.0695 810 1.45455V0H792Z" fill="white"/>
<path d="M522 0V1.45455C522 5.0695 526.029 8 531 8C535.971 8 540 5.0695 540 1.45455V0H522Z" fill="white"/>
<path d="M738 0V1.45455C738 5.0695 742.029 8 747 8C751.971 8 756 5.0695 756 1.45455V0H738Z" fill="white"/>
<path d="M630 0V1.45455C630 5.0695 634.029 8 639 8C643.971 8 648 5.0695 648 1.45455V0H630Z" fill="white"/>
<path d="M846 0V1.45455C846 5.0695 850.029 8 855 8C859.971 8 864 5.0695 864 1.45455V0H846Z" fill="white"/>
<path d="M864 0V1.45455C864 5.0695 868.029 8 873 8C877.971 8 882 5.0695 882 1.45455V0H864Z" fill="white"/>
<path d="M1080 0V1.45455C1080 5.0695 1084.03 8 1089 8C1093.97 8 1098 5.0695 1098 1.45455V0H1080Z" fill="white"/>
<path d="M972 0V1.45455C972 5.0695 976.029 8 981 8C985.971 8 990 5.0695 990 1.45455V0H972Z" fill="white"/>
<path d="M1188 0V1.45455C1188 5.0695 1192.03 8 1197 8C1201.97 8 1206 5.0695 1206 1.45455V0H1188Z" fill="white"/>
<path d="M918 0V1.45455C918 5.0695 922.029 8 927 8C931.971 8 936 5.0695 936 1.45455V0H918Z" fill="white"/>
<path d="M1134 0V1.45455C1134 5.0695 1138.03 8 1143 8C1147.97 8 1152 5.0695 1152 1.45455V0H1134Z" fill="white"/>
<path d="M1026 0V1.45455C1026 5.0695 1030.03 8 1035 8C1039.97 8 1044 5.0695 1044 1.45455V0H1026Z" fill="white"/>
<path d="M1242 0V1.45455C1242 5.0695 1246.03 8 1251 8C1255.97 8 1260 5.0695 1260 1.45455V0H1242Z" fill="white"/>
<path d="M882 0V1.45455C882 5.0695 886.029 8 891 8C895.971 8 900 5.0695 900 1.45455V0H882Z" fill="white"/>
<path d="M1098 0V1.45455C1098 5.0695 1102.03 8 1107 8C1111.97 8 1116 5.0695 1116 1.45455V0H1098Z" fill="white"/>
<path d="M990 0V1.45455C990 5.0695 994.029 8 999 8C1003.97 8 1008 5.0695 1008 1.45455V0H990Z" fill="white"/>
<path d="M1206 0V1.45455C1206 5.0695 1210.03 8 1215 8C1219.97 8 1224 5.0695 1224 1.45455V0H1206Z" fill="white"/>
<path d="M936 0V1.45455C936 5.0695 940.029 8 945 8C949.971 8 954 5.0695 954 1.45455V0H936Z" fill="white"/>
<path d="M1152 0V1.45455C1152 5.0695 1156.03 8 1161 8C1165.97 8 1170 5.0695 1170 1.45455V0H1152Z" fill="white"/>
<path d="M1044 0V1.45455C1044 5.0695 1048.03 8 1053 8C1057.97 8 1062 5.0695 1062 1.45455V0H1044Z" fill="white"/>
<path d="M1260 0V1.45455C1260 5.0695 1264.03 8 1269 8C1273.97 8 1278 5.0695 1278 1.45455V0H1260Z" fill="white"/>
<path d="M900 0V1.45455C900 5.0695 904.029 8 909 8C913.971 8 918 5.0695 918 1.45455V0H900Z" fill="white"/>
<path d="M1116 0V1.45455C1116 5.0695 1120.03 8 1125 8C1129.97 8 1134 5.0695 1134 1.45455V0H1116Z" fill="white"/>
<path d="M1008 0V1.45455C1008 5.0695 1012.03 8 1017 8C1021.97 8 1026 5.0695 1026 1.45455V0H1008Z" fill="white"/>
<path d="M1224 0V1.45455C1224 5.0695 1228.03 8 1233 8C1237.97 8 1242 5.0695 1242 1.45455V0H1224Z" fill="white"/>
<path d="M954 0V1.45455C954 5.0695 958.029 8 963 8C967.971 8 972 5.0695 972 1.45455V0H954Z" fill="white"/>
<path d="M1170 0V1.45455C1170 5.0695 1174.03 8 1179 8C1183.97 8 1188 5.0695 1188 1.45455V0H1170Z" fill="white"/>
<path d="M1062 0V1.45455C1062 5.0695 1066.03 8 1071 8C1075.97 8 1080 5.0695 1080 1.45455V0H1062Z" fill="white"/>
<path d="M1278 0V1.45455C1278 5.0695 1282.03 8 1287 8C1291.97 8 1296 5.0695 1296 1.45455V0H1278Z" fill="white"/>
<path d="M1296 0V1.45455C1296 5.0695 1300.03 8 1305 8C1309.97 8 1314 5.0695 1314 1.45455V0H1296Z" fill="white"/>
<path d="M1404 0V1.45455C1404 5.0695 1408.03 8 1413 8C1417.97 8 1422 5.0695 1422 1.45455V0H1404Z" fill="white"/>
<path d="M1350 0V1.45455C1350 5.0695 1354.03 8 1359 8C1363.97 8 1368 5.0695 1368 1.45455V0H1350Z" fill="white"/>
<path d="M1314 0V1.45455C1314 5.0695 1318.03 8 1323 8C1327.97 8 1332 5.0695 1332 1.45455V0H1314Z" fill="white"/>
<path d="M1422 0V1.45455C1422 5.0695 1426.03 8 1431 8C1435.97 8 1440 5.0695 1440 1.45455V0H1422Z" fill="white"/>
<path d="M1368 0V1.45455C1368 5.0695 1372.03 8 1377 8C1381.97 8 1386 5.0695 1386 1.45455V0H1368Z" fill="white"/>
<path d="M1332 0V1.45455C1332 5.0695 1336.03 8 1341 8C1345.97 8 1350 5.0695 1350 1.45455V0H1332Z" fill="white"/>
<path d="M1386 0V1.45455C1386 5.0695 1390.03 8 1395 8C1399.97 8 1404 5.0695 1404 1.45455V0H1386Z" fill="white"/>
</svg>
