<svg width="194" height="98" viewBox="0 0 194 98" fill="none" xmlns="http://www.w3.org/2000/svg">
<g filter="url(#filter0_d)">
<path d="M1 0H192.667V78.4153C192.667 83.0837 189.097 86.9771 184.446 87.3815L97.0932 94.9774C96.9203 94.9924 96.7464 94.9924 96.5734 94.9774L9.22032 87.3815C4.5695 86.9771 1 83.0837 1 78.4153V0Z" fill="#5D2524"/>
</g>
<mask id="path-2-outside-1" maskUnits="userSpaceOnUse" x="17.3337" y="18.833" width="159" height="33" fill="black">
<rect fill="white" x="17.3337" y="18.833" width="159" height="33"/>
<path fill-rule="evenodd" clip-rule="evenodd" d="M92.6191 46.4572C90.8521 47.0707 86.3819 47.3487 85.5991 47.3295C84.043 47.2305 83.6148 46.1249 83.4902 44.7893C83.4263 44.1311 83.372 43.4665 83.3241 42.7987C82.4933 43.8403 81.0874 44.3164 79.7134 43.3131C77.5279 41.7155 75.697 37.5041 74.9333 37.7757C74.4125 37.961 75.1602 41.5685 74.6202 44.0831C73.7255 48.2434 68.0156 46.5946 68.7218 43C68.2489 43.345 67.6993 43.5144 67.0506 43.6518C65.6 43.9617 63.9257 44.2429 62.2386 44.4506C60.9541 44.6072 60.0946 44.3771 59.8805 43.0671L58.6088 35.2994C58.5417 34.8936 57.9314 34.9863 57.9921 35.4016L59.1871 43.3323C59.3884 44.6679 58.4299 45.0673 57.0399 45.3517C55.8481 45.5977 55.0014 45.7543 53.9853 45.9076C52.4707 46.1345 50.921 45.8373 50.6239 43.9521L50.4865 43.0543L50.4833 43.0383C46.1122 50.2436 35.0182 49.2275 32.9222 40.7888L32.4972 45.2302C32.4013 46.2336 31.9955 47.1602 30.8516 47.288C28.992 47.4989 24.6528 46.8151 23.8988 46.6234C22.4034 46.1856 22.2308 45.013 22.397 43.6837C22.9721 39.1273 23.9147 34.4495 24.3525 29.8483C23.4067 29.8132 22.1701 29.8099 21.2116 29.7716C20.2594 29.7301 19.5404 29.0878 19.3551 28.1324C19.2145 27.4007 19.8056 25.9916 20.0165 25.2663C20.3137 24.247 20.6204 23.1383 20.7291 22.5376C20.94 21.3809 22.0072 20.6971 23.2182 20.9559C28.4328 22.0455 32.4013 22.2436 37.6639 22.5759C39.1241 22.7516 39.5938 23.5217 39.5363 24.6368C39.4884 25.5826 39.3766 26.7297 39.3414 27.8577C42.0766 27.4295 45.6297 28.0813 47.9974 29.7109C48.2178 28.9025 48.7419 28.4967 49.4991 28.2059C50.937 27.6468 53.6657 26.7106 54.8416 26.5252C55.6053 26.4038 56.2443 26.7201 56.6789 27.2601C57.7045 26.4837 58.8836 25.8351 60.1585 25.6369C63.5838 25.1001 66.7759 26.6403 67.3606 30.3979L67.776 33.0436C68.8208 32.9605 70.1053 33.1777 71.6263 33.8488C67.891 31.2862 67.073 25.9181 70.9872 25.4229C73.1983 25.1417 74.9461 27.7203 74.9365 33.0563C75.6107 31.8453 76.4063 30.973 77.2403 30.3819C77.2243 30.3531 77.2116 30.3212 77.1988 30.2924C76.9016 29.6087 77.1668 28.1037 77.2147 27.3496C77.2723 26.4358 77.3202 25.4548 77.317 24.8126C77.3106 23.461 77.8953 22.4577 79.3939 22.4417C84.7204 22.3618 88.6346 21.6844 93.8428 20.8537C95.3063 20.7067 95.9325 21.3553 96.1211 22.4545C96.3863 24.0042 96.6099 26.1354 97.1691 27.7171C100.508 27.0109 105.323 28.0334 107.566 30.6056C107.461 29.6885 107.809 28.8258 108.691 28.3401C109.049 28.142 113.944 26.7457 114.388 26.701C115.059 26.6339 115.73 26.8927 116.155 27.4167C118.526 25.7136 121.891 25.4996 124.3 27.2857C127.422 24.5857 133.295 23.7677 135.403 28.1612C136.097 29.6023 136.148 31.9316 136.247 33.5196L136.452 33.4973C136.477 32.74 136.487 32.0051 136.483 31.251C136.42 30.1327 136.937 29.1326 138.065 28.7907C138.458 28.6724 143.535 28.3274 143.98 28.3785C144.647 28.452 145.248 28.845 145.558 29.4489C148.232 28.2762 151.802 28.7172 153.789 30.9666C156.259 29.6055 159.304 29.4169 161.796 30.8484C161.601 30.1071 161.72 29.3754 162.244 28.7939C159.582 25.9533 161.384 21.7515 165.123 21.1444C168.887 20.5309 172.149 23.9435 170.577 27.5573C171.293 28.0366 171.503 28.7268 171.526 29.5352C171.765 34.0884 172.743 38.3796 173.469 42.8402C173.657 43.9873 172.992 44.9842 171.912 45.3549C170.813 45.7415 167.746 46.2431 166.586 46.224C165.976 46.2112 165.231 45.9492 164.787 45.5434C164.074 47.6203 163.825 49.1316 161.355 49.3457C160.41 49.4256 156.764 49.0166 155.869 48.7259C154.422 48.2625 154.319 47.3551 154.454 46.1089L155.275 38.4084C155.291 38.2358 155.166 38.0825 154.997 38.0665L154.984 38.0633H154.981H154.978C154.815 38.0569 154.671 38.1783 154.655 38.3445L153.837 46.0195C153.687 47.4318 153.188 48.4574 151.453 48.2625C149.894 48.1251 148.341 47.9558 146.804 47.7449C145.331 47.5819 144.82 46.5627 144.967 45.2462L145.849 37.2549C145.868 37.0919 145.753 36.9418 145.593 36.9162C145.584 36.913 145.577 36.913 145.571 36.913C145.401 36.897 145.248 37.0216 145.229 37.191L144.334 45.3005C144.181 46.7033 143.59 47.288 142.034 47.2464C140.513 47.2145 138.842 46.978 137.346 46.6937C135.576 46.3422 135.253 45.2878 135.439 43.655C134.189 43.917 131.119 44.2046 130.272 44.1151C128.805 43.9681 128.483 43.1501 128.352 41.9232L127.524 34.1555C127.479 33.7465 126.859 33.804 126.901 34.2162L127.751 42.2075C127.891 43.5304 127.256 44.4538 125.837 44.5944L121.181 45.0577C119.807 45.1951 119.085 44.4378 118.945 43.1405L118.079 34.9958C118.034 34.5869 117.414 34.6444 117.459 35.0566L118.315 43.1118C118.469 44.5497 117.89 45.291 116.421 45.5594C114.928 45.8437 113.244 45.962 111.72 45.9971C110.736 46.0099 109.861 45.6776 109.471 44.7222C109.225 44.1183 109.158 42.9073 109.068 42.2011C106.467 48.237 97.2554 49.2339 93.8652 44.6104L93.8109 44.5401C93.8173 45.374 93.5361 46.1377 92.6191 46.4572ZM83.0557 38.4339C82.9886 37.1878 82.9151 35.9416 82.8224 34.7019C81.1449 36.3858 78.0327 35.4336 77.5407 35.8298C78.6207 35.9352 81.4836 36.8715 83.0557 38.4339ZM93.2997 29.8994C92.929 29.8866 92.5456 29.8898 92.1366 29.909C92.2069 31.5258 92.3539 33.1202 92.5839 34.6955C92.9002 34.3632 93.2837 34.1044 93.7438 33.951C93.2965 32.7688 92.5679 31.0657 93.2997 29.8994ZM70.0254 38.5713C70.0063 39.236 69.9424 39.9293 69.8401 40.5588C70.821 39.0155 72.0225 37.7374 71.9554 37.5361C71.2652 37.977 70.6229 38.3157 70.0254 38.5713ZM33.4334 35.4528C33.7306 34.8041 34.2706 34.3408 35.3378 34.1715C35.015 33.3056 34.5485 32.1617 34.6029 31.152C34.4143 31.1104 34.2194 31.0721 34.0181 31.0369C33.7529 32.5131 33.558 33.983 33.4334 35.4528Z"/>
</mask>
<path fill-rule="evenodd" clip-rule="evenodd" d="M92.6191 46.4572C90.8521 47.0707 86.3819 47.3487 85.5991 47.3295C84.043 47.2305 83.6148 46.1249 83.4902 44.7893C83.4263 44.1311 83.372 43.4665 83.3241 42.7987C82.4933 43.8403 81.0874 44.3164 79.7134 43.3131C77.5279 41.7155 75.697 37.5041 74.9333 37.7757C74.4125 37.961 75.1602 41.5685 74.6202 44.0831C73.7255 48.2434 68.0156 46.5946 68.7218 43C68.2489 43.345 67.6993 43.5144 67.0506 43.6518C65.6 43.9617 63.9257 44.2429 62.2386 44.4506C60.9541 44.6072 60.0946 44.3771 59.8805 43.0671L58.6088 35.2994C58.5417 34.8936 57.9314 34.9863 57.9921 35.4016L59.1871 43.3323C59.3884 44.6679 58.4299 45.0673 57.0399 45.3517C55.8481 45.5977 55.0014 45.7543 53.9853 45.9076C52.4707 46.1345 50.921 45.8373 50.6239 43.9521L50.4865 43.0543L50.4833 43.0383C46.1122 50.2436 35.0182 49.2275 32.9222 40.7888L32.4972 45.2302C32.4013 46.2336 31.9955 47.1602 30.8516 47.288C28.992 47.4989 24.6528 46.8151 23.8988 46.6234C22.4034 46.1856 22.2308 45.013 22.397 43.6837C22.9721 39.1273 23.9147 34.4495 24.3525 29.8483C23.4067 29.8132 22.1701 29.8099 21.2116 29.7716C20.2594 29.7301 19.5404 29.0878 19.3551 28.1324C19.2145 27.4007 19.8056 25.9916 20.0165 25.2663C20.3137 24.247 20.6204 23.1383 20.7291 22.5376C20.94 21.3809 22.0072 20.6971 23.2182 20.9559C28.4328 22.0455 32.4013 22.2436 37.6639 22.5759C39.1241 22.7516 39.5938 23.5217 39.5363 24.6368C39.4884 25.5826 39.3766 26.7297 39.3414 27.8577C42.0766 27.4295 45.6297 28.0813 47.9974 29.7109C48.2178 28.9025 48.7419 28.4967 49.4991 28.2059C50.937 27.6468 53.6657 26.7106 54.8416 26.5252C55.6053 26.4038 56.2443 26.7201 56.6789 27.2601C57.7045 26.4837 58.8836 25.8351 60.1585 25.6369C63.5838 25.1001 66.7759 26.6403 67.3606 30.3979L67.776 33.0436C68.8208 32.9605 70.1053 33.1777 71.6263 33.8488C67.891 31.2862 67.073 25.9181 70.9872 25.4229C73.1983 25.1417 74.9461 27.7203 74.9365 33.0563C75.6107 31.8453 76.4063 30.973 77.2403 30.3819C77.2243 30.3531 77.2116 30.3212 77.1988 30.2924C76.9016 29.6087 77.1668 28.1037 77.2147 27.3496C77.2723 26.4358 77.3202 25.4548 77.317 24.8126C77.3106 23.461 77.8953 22.4577 79.3939 22.4417C84.7204 22.3618 88.6346 21.6844 93.8428 20.8537C95.3063 20.7067 95.9325 21.3553 96.1211 22.4545C96.3863 24.0042 96.6099 26.1354 97.1691 27.7171C100.508 27.0109 105.323 28.0334 107.566 30.6056C107.461 29.6885 107.809 28.8258 108.691 28.3401C109.049 28.142 113.944 26.7457 114.388 26.701C115.059 26.6339 115.73 26.8927 116.155 27.4167C118.526 25.7136 121.891 25.4996 124.3 27.2857C127.422 24.5857 133.295 23.7677 135.403 28.1612C136.097 29.6023 136.148 31.9316 136.247 33.5196L136.452 33.4973C136.477 32.74 136.487 32.0051 136.483 31.251C136.42 30.1327 136.937 29.1326 138.065 28.7907C138.458 28.6724 143.535 28.3274 143.98 28.3785C144.647 28.452 145.248 28.845 145.558 29.4489C148.232 28.2762 151.802 28.7172 153.789 30.9666C156.259 29.6055 159.304 29.4169 161.796 30.8484C161.601 30.1071 161.72 29.3754 162.244 28.7939C159.582 25.9533 161.384 21.7515 165.123 21.1444C168.887 20.5309 172.149 23.9435 170.577 27.5573C171.293 28.0366 171.503 28.7268 171.526 29.5352C171.765 34.0884 172.743 38.3796 173.469 42.8402C173.657 43.9873 172.992 44.9842 171.912 45.3549C170.813 45.7415 167.746 46.2431 166.586 46.224C165.976 46.2112 165.231 45.9492 164.787 45.5434C164.074 47.6203 163.825 49.1316 161.355 49.3457C160.41 49.4256 156.764 49.0166 155.869 48.7259C154.422 48.2625 154.319 47.3551 154.454 46.1089L155.275 38.4084C155.291 38.2358 155.166 38.0825 154.997 38.0665L154.984 38.0633H154.981H154.978C154.815 38.0569 154.671 38.1783 154.655 38.3445L153.837 46.0195C153.687 47.4318 153.188 48.4574 151.453 48.2625C149.894 48.1251 148.341 47.9558 146.804 47.7449C145.331 47.5819 144.82 46.5627 144.967 45.2462L145.849 37.2549C145.868 37.0919 145.753 36.9418 145.593 36.9162C145.584 36.913 145.577 36.913 145.571 36.913C145.401 36.897 145.248 37.0216 145.229 37.191L144.334 45.3005C144.181 46.7033 143.59 47.288 142.034 47.2464C140.513 47.2145 138.842 46.978 137.346 46.6937C135.576 46.3422 135.253 45.2878 135.439 43.655C134.189 43.917 131.119 44.2046 130.272 44.1151C128.805 43.9681 128.483 43.1501 128.352 41.9232L127.524 34.1555C127.479 33.7465 126.859 33.804 126.901 34.2162L127.751 42.2075C127.891 43.5304 127.256 44.4538 125.837 44.5944L121.181 45.0577C119.807 45.1951 119.085 44.4378 118.945 43.1405L118.079 34.9958C118.034 34.5869 117.414 34.6444 117.459 35.0566L118.315 43.1118C118.469 44.5497 117.89 45.291 116.421 45.5594C114.928 45.8437 113.244 45.962 111.72 45.9971C110.736 46.0099 109.861 45.6776 109.471 44.7222C109.225 44.1183 109.158 42.9073 109.068 42.2011C106.467 48.237 97.2554 49.2339 93.8652 44.6104L93.8109 44.5401C93.8173 45.374 93.5361 46.1377 92.6191 46.4572ZM83.0557 38.4339C82.9886 37.1878 82.9151 35.9416 82.8224 34.7019C81.1449 36.3858 78.0327 35.4336 77.5407 35.8298C78.6207 35.9352 81.4836 36.8715 83.0557 38.4339ZM93.2997 29.8994C92.929 29.8866 92.5456 29.8898 92.1366 29.909C92.2069 31.5258 92.3539 33.1202 92.5839 34.6955C92.9002 34.3632 93.2837 34.1044 93.7438 33.951C93.2965 32.7688 92.5679 31.0657 93.2997 29.8994ZM70.0254 38.5713C70.0063 39.236 69.9424 39.9293 69.8401 40.5588C70.821 39.0155 72.0225 37.7374 71.9554 37.5361C71.2652 37.977 70.6229 38.3157 70.0254 38.5713ZM33.4334 35.4528C33.7306 34.8041 34.2706 34.3408 35.3378 34.1715C35.015 33.3056 34.5485 32.1617 34.6029 31.152C34.4143 31.1104 34.2194 31.0721 34.0181 31.0369C33.7529 32.5131 33.558 33.983 33.4334 35.4528Z" fill="#5D2524"/>
<path fill-rule="evenodd" clip-rule="evenodd" d="M92.6191 46.4572C90.8521 47.0707 86.3819 47.3487 85.5991 47.3295C84.043 47.2305 83.6148 46.1249 83.4902 44.7893C83.4263 44.1311 83.372 43.4665 83.3241 42.7987C82.4933 43.8403 81.0874 44.3164 79.7134 43.3131C77.5279 41.7155 75.697 37.5041 74.9333 37.7757C74.4125 37.961 75.1602 41.5685 74.6202 44.0831C73.7255 48.2434 68.0156 46.5946 68.7218 43C68.2489 43.345 67.6993 43.5144 67.0506 43.6518C65.6 43.9617 63.9257 44.2429 62.2386 44.4506C60.9541 44.6072 60.0946 44.3771 59.8805 43.0671L58.6088 35.2994C58.5417 34.8936 57.9314 34.9863 57.9921 35.4016L59.1871 43.3323C59.3884 44.6679 58.4299 45.0673 57.0399 45.3517C55.8481 45.5977 55.0014 45.7543 53.9853 45.9076C52.4707 46.1345 50.921 45.8373 50.6239 43.9521L50.4865 43.0543L50.4833 43.0383C46.1122 50.2436 35.0182 49.2275 32.9222 40.7888L32.4972 45.2302C32.4013 46.2336 31.9955 47.1602 30.8516 47.288C28.992 47.4989 24.6528 46.8151 23.8988 46.6234C22.4034 46.1856 22.2308 45.013 22.397 43.6837C22.9721 39.1273 23.9147 34.4495 24.3525 29.8483C23.4067 29.8132 22.1701 29.8099 21.2116 29.7716C20.2594 29.7301 19.5404 29.0878 19.3551 28.1324C19.2145 27.4007 19.8056 25.9916 20.0165 25.2663C20.3137 24.247 20.6204 23.1383 20.7291 22.5376C20.94 21.3809 22.0072 20.6971 23.2182 20.9559C28.4328 22.0455 32.4013 22.2436 37.6639 22.5759C39.1241 22.7516 39.5938 23.5217 39.5363 24.6368C39.4884 25.5826 39.3766 26.7297 39.3414 27.8577C42.0766 27.4295 45.6297 28.0813 47.9974 29.7109C48.2178 28.9025 48.7419 28.4967 49.4991 28.2059C50.937 27.6468 53.6657 26.7106 54.8416 26.5252C55.6053 26.4038 56.2443 26.7201 56.6789 27.2601C57.7045 26.4837 58.8836 25.8351 60.1585 25.6369C63.5838 25.1001 66.7759 26.6403 67.3606 30.3979L67.776 33.0436C68.8208 32.9605 70.1053 33.1777 71.6263 33.8488C67.891 31.2862 67.073 25.9181 70.9872 25.4229C73.1983 25.1417 74.9461 27.7203 74.9365 33.0563C75.6107 31.8453 76.4063 30.973 77.2403 30.3819C77.2243 30.3531 77.2116 30.3212 77.1988 30.2924C76.9016 29.6087 77.1668 28.1037 77.2147 27.3496C77.2723 26.4358 77.3202 25.4548 77.317 24.8126C77.3106 23.461 77.8953 22.4577 79.3939 22.4417C84.7204 22.3618 88.6346 21.6844 93.8428 20.8537C95.3063 20.7067 95.9325 21.3553 96.1211 22.4545C96.3863 24.0042 96.6099 26.1354 97.1691 27.7171C100.508 27.0109 105.323 28.0334 107.566 30.6056C107.461 29.6885 107.809 28.8258 108.691 28.3401C109.049 28.142 113.944 26.7457 114.388 26.701C115.059 26.6339 115.73 26.8927 116.155 27.4167C118.526 25.7136 121.891 25.4996 124.3 27.2857C127.422 24.5857 133.295 23.7677 135.403 28.1612C136.097 29.6023 136.148 31.9316 136.247 33.5196L136.452 33.4973C136.477 32.74 136.487 32.0051 136.483 31.251C136.42 30.1327 136.937 29.1326 138.065 28.7907C138.458 28.6724 143.535 28.3274 143.98 28.3785C144.647 28.452 145.248 28.845 145.558 29.4489C148.232 28.2762 151.802 28.7172 153.789 30.9666C156.259 29.6055 159.304 29.4169 161.796 30.8484C161.601 30.1071 161.72 29.3754 162.244 28.7939C159.582 25.9533 161.384 21.7515 165.123 21.1444C168.887 20.5309 172.149 23.9435 170.577 27.5573C171.293 28.0366 171.503 28.7268 171.526 29.5352C171.765 34.0884 172.743 38.3796 173.469 42.8402C173.657 43.9873 172.992 44.9842 171.912 45.3549C170.813 45.7415 167.746 46.2431 166.586 46.224C165.976 46.2112 165.231 45.9492 164.787 45.5434C164.074 47.6203 163.825 49.1316 161.355 49.3457C160.41 49.4256 156.764 49.0166 155.869 48.7259C154.422 48.2625 154.319 47.3551 154.454 46.1089L155.275 38.4084C155.291 38.2358 155.166 38.0825 154.997 38.0665L154.984 38.0633H154.981H154.978C154.815 38.0569 154.671 38.1783 154.655 38.3445L153.837 46.0195C153.687 47.4318 153.188 48.4574 151.453 48.2625C149.894 48.1251 148.341 47.9558 146.804 47.7449C145.331 47.5819 144.82 46.5627 144.967 45.2462L145.849 37.2549C145.868 37.0919 145.753 36.9418 145.593 36.9162C145.584 36.913 145.577 36.913 145.571 36.913C145.401 36.897 145.248 37.0216 145.229 37.191L144.334 45.3005C144.181 46.7033 143.59 47.288 142.034 47.2464C140.513 47.2145 138.842 46.978 137.346 46.6937C135.576 46.3422 135.253 45.2878 135.439 43.655C134.189 43.917 131.119 44.2046 130.272 44.1151C128.805 43.9681 128.483 43.1501 128.352 41.9232L127.524 34.1555C127.479 33.7465 126.859 33.804 126.901 34.2162L127.751 42.2075C127.891 43.5304 127.256 44.4538 125.837 44.5944L121.181 45.0577C119.807 45.1951 119.085 44.4378 118.945 43.1405L118.079 34.9958C118.034 34.5869 117.414 34.6444 117.459 35.0566L118.315 43.1118C118.469 44.5497 117.89 45.291 116.421 45.5594C114.928 45.8437 113.244 45.962 111.72 45.9971C110.736 46.0099 109.861 45.6776 109.471 44.7222C109.225 44.1183 109.158 42.9073 109.068 42.2011C106.467 48.237 97.2554 49.2339 93.8652 44.6104L93.8109 44.5401C93.8173 45.374 93.5361 46.1377 92.6191 46.4572ZM83.0557 38.4339C82.9886 37.1878 82.9151 35.9416 82.8224 34.7019C81.1449 36.3858 78.0327 35.4336 77.5407 35.8298C78.6207 35.9352 81.4836 36.8715 83.0557 38.4339ZM93.2997 29.8994C92.929 29.8866 92.5456 29.8898 92.1366 29.909C92.2069 31.5258 92.3539 33.1202 92.5839 34.6955C92.9002 34.3632 93.2837 34.1044 93.7438 33.951C93.2965 32.7688 92.5679 31.0657 93.2997 29.8994ZM70.0254 38.5713C70.0063 39.236 69.9424 39.9293 69.8401 40.5588C70.821 39.0155 72.0225 37.7374 71.9554 37.5361C71.2652 37.977 70.6229 38.3157 70.0254 38.5713ZM33.4334 35.4528C33.7306 34.8041 34.2706 34.3408 35.3378 34.1715C35.015 33.3056 34.5485 32.1617 34.6029 31.152C34.4143 31.1104 34.2194 31.0721 34.0181 31.0369C33.7529 32.5131 33.558 33.983 33.4334 35.4528Z" stroke="white" stroke-width="4" mask="url(#path-2-outside-1)"/>
<path fill-rule="evenodd" clip-rule="evenodd" d="M94.0381 27.7465C93.8048 26.5323 93.4406 24.8356 93.2424 22.9121C88.3857 23.6598 83.5417 24.2413 78.8478 24.4969C78.8702 26.1489 78.7328 27.804 78.5059 29.4592L83.5289 28.5262C84.3277 33.9581 84.5609 39.4667 85.0083 44.937C86.6986 44.9529 89.095 44.7357 90.731 44.3395C89.9417 38.8181 89.2899 33.6194 88.8809 27.9574L94.0381 27.7465ZM36.3478 29.3473C36.3861 28.1108 36.4021 26.3758 36.6322 24.4554C31.7306 24.1167 26.877 23.6246 22.2407 22.8418C21.902 24.4586 21.4036 26.0434 20.8188 27.6091L25.9249 27.8008C25.5127 33.2743 24.5317 38.6998 23.7681 44.135C25.4136 44.5216 27.8005 44.8347 29.4844 44.8092C29.9253 39.2526 30.4334 34.0348 31.2737 28.4207L36.3478 29.3473ZM54.107 28.6412L54.7652 30.3826C58.3631 26.6346 63.7055 25.8773 64.8303 32.4371C64.9421 33.0826 65.0443 33.6897 65.137 34.2776C63.6448 35.9935 64.2327 38.8979 66.9168 39.1791C66.8848 39.5274 66.8465 39.8693 66.7953 40.2527C66.7346 40.8471 66.4982 41.2497 65.923 41.3583C64.4117 41.6459 62.9195 41.9047 61.4177 42.0485C60.9416 39.4252 60.6317 36.7859 60.2227 34.1402C59.606 30.1174 55.1454 33.041 55.4298 34.8879C55.8388 37.5464 56.2382 40.1537 56.644 42.8121C55.0081 43.2243 53.436 43.4448 51.9502 43.5662C51.1961 39.1632 51.145 34.5045 49.3365 30.3506L54.107 28.6412ZM36.0219 31.0344C36.1113 31.731 36.7376 33.6226 37.0284 34.1306C39.7955 33.0155 44.304 32.8078 44.55 36.6038C41.5752 36.412 38.6004 36.1692 35.6225 36.0254C34.2836 35.9615 34.2581 37.5591 34.2581 38.5273C34.2613 43.0677 38.0732 45.6271 41.8085 45.4322C49.5569 45.0264 51.4198 33.6865 44.7385 30.6446C42.0705 29.4304 38.3768 29.6445 36.0219 31.0344ZM38.8944 39.0194C38.9711 38.5848 39.4791 38.5401 39.837 38.5529C41.0256 38.588 42.3644 38.6263 43.5339 38.8276C44.0228 38.9107 44.2944 39.2654 44.2049 39.7511C43.4764 43.7675 38.2617 42.5118 38.8944 39.0194ZM133.646 32.1656C133.88 34.0859 134.046 35.6771 134.206 37.3227L135.583 37.1725C135.5 38.3548 135.413 39.0865 135.231 40.0706C135.142 40.6617 134.886 41.0515 134.305 41.1314C132.78 41.3455 131.279 41.5308 129.771 41.6011C129.422 38.9587 129.24 36.3066 128.959 33.6449C128.585 30.079 124.975 31.7534 124.256 33.4692C124.597 36.3194 124.869 39.1887 125.169 42.0421C123.882 42.2913 121.21 42.5501 120.341 42.5917C119.993 39.9492 119.811 37.2971 119.53 34.6355C119.105 30.5871 114.545 33.6162 114.708 35.1499C114.989 37.8243 115.261 40.4476 115.539 43.1253C113.884 43.4576 112.302 43.6014 110.813 43.6493C110.184 38.5049 110.101 35.4343 108.842 30.3219C110.382 29.7947 112.117 29.3218 113.823 28.8776L114.267 30.619C117.28 27.7657 121.319 26.8774 123.23 30.0056C126.908 26.4045 132.771 25.021 133.646 32.1656ZM164.624 23.2316C166.097 22.9792 167.481 23.8164 167.717 25.1008C167.954 26.3853 166.951 27.6315 165.481 27.8839C164.008 28.1363 162.624 27.2992 162.388 26.0147C162.151 24.7302 163.155 23.484 164.624 23.2316ZM163.001 30.1078C164.151 34.4981 165.024 39.2462 165.637 43.7356C166.474 43.7611 169.478 43.3042 170.267 43.0326C169.376 38.5848 168.647 33.8143 168.296 29.3026C166.49 29.6828 164.845 29.9321 163.001 30.1078ZM161.605 38.1758C161.397 40.0994 161.199 41.6874 160.979 43.3234L162.356 43.4895C162.004 44.6206 161.758 45.314 161.356 46.2311C161.135 46.787 160.796 47.1065 160.215 47.0554C158.681 46.918 157.176 46.7583 155.694 46.4835C155.956 43.8314 156.377 41.2049 156.71 38.5529C157.157 34.9965 153.262 35.8049 152.169 37.3131C151.856 40.1665 151.466 43.023 151.112 45.87C149.802 45.8189 147.143 45.4674 146.287 45.3076C146.549 42.6556 146.974 40.0291 147.303 37.377C147.808 33.3382 142.679 35.2522 142.488 36.7795C142.152 39.4475 141.823 42.0644 141.484 44.7357C139.797 44.6814 138.225 44.4641 136.762 44.1733C137.318 39.0194 137.931 36.0126 137.867 30.7469C139.475 30.5839 141.267 30.4433 143.044 30.3954L143.082 32.2646C146.667 30.1717 150.799 30.2228 151.952 33.7025C156.352 31.0344 162.378 31.0185 161.605 38.1758ZM94.4471 30.8299C94.5397 31.5233 95.1788 33.4053 95.4759 33.907C98.2238 32.7726 102.716 32.533 102.991 36.3162C100.023 36.1468 97.0608 35.9296 94.0892 35.8081C92.7568 35.7538 92.7408 37.3482 92.7504 38.3132C92.7887 42.8377 96.607 45.3588 100.326 45.1351C108.046 44.6718 109.816 33.3542 103.132 30.373C100.461 29.1844 96.7828 29.424 94.4471 30.8299ZM97.3707 38.7669C97.4442 38.3324 97.949 38.2845 98.3069 38.2972C99.4924 38.3196 100.825 38.3484 101.994 38.5433C102.483 38.6232 102.755 38.9746 102.668 39.4571C101.975 43.4608 96.7668 42.2498 97.3707 38.7669Z" fill="#FCF18C"/>
<path fill-rule="evenodd" clip-rule="evenodd" d="M74.0734 32.7242C74.0574 31.8296 74.0415 30.7304 73.853 29.7335C73.5398 28.056 72.8113 27.1932 72.0412 26.9184C71.5332 26.7363 70.9996 26.8162 70.5618 27.0878C70.1177 27.3626 69.7662 27.8387 69.6224 28.449C69.37 29.529 69.7726 31.0243 71.4565 32.5932C73.0286 34.0758 73.5845 34.6414 73.3864 34.8491C73.2554 34.9897 72.9263 34.8746 72.4183 34.6957C71.3638 34.325 69.4115 33.6413 67.5743 34.0375C66.9161 34.1781 66.4112 34.5168 66.0725 34.9385C65.6923 35.4146 65.5165 35.9962 65.5613 36.5362C65.6667 37.8366 66.6093 38.1561 67.75 38.0635C68.9674 37.9644 70.4117 37.4149 71.383 37.0442C71.8623 36.8621 72.2298 36.7247 72.4215 36.6927C72.6036 36.6672 72.7122 36.7151 72.7346 36.8653C72.7921 37.2423 72.3576 38.0251 71.824 38.9869C71.236 40.0509 70.5171 41.3418 70.2231 42.4697C69.9196 43.6328 70.0826 44.6201 71.3702 44.9557C71.546 45.0004 71.7281 45.0227 71.907 45.0132C72.2841 44.994 72.6579 44.8406 72.9838 44.5147C73.3225 44.1728 73.6133 43.6456 73.8114 42.8883C74.0319 42.048 74.1341 40.9264 74.0574 39.4758C74.0159 38.6482 74.0511 37.9453 74.1533 37.466C74.2044 37.2263 74.2715 37.0346 74.3546 36.9036C74.4632 36.7311 74.6038 36.6448 74.77 36.664C74.8147 36.6704 74.8595 36.6831 74.9074 36.7055L74.917 36.7087C75.6455 37.0793 76.4826 38.0922 77.3677 39.1627C78.026 39.9615 78.7129 40.7922 79.3903 41.4025C80.3745 42.2908 81.3426 42.703 82.167 41.7892C83.0617 40.7954 82.5984 39.7985 81.6238 38.923C80.0262 37.4851 77.0929 36.3604 76.211 36.0185C75.85 35.8811 75.6487 35.8044 75.9075 35.6127C76.0705 35.4913 76.5849 35.4018 77.2783 35.2772C78.6107 35.0408 80.6301 34.6829 81.7612 33.9065C82.5824 33.3409 82.9179 32.5293 82.0999 31.3407C81.055 29.8325 79.6364 30.2 78.3199 31.1074C77.2144 31.8711 76.1759 33.015 75.4729 33.7882C74.9329 34.3826 74.5719 34.782 74.3642 34.6478C74.1022 34.4624 74.0894 33.7148 74.0734 32.7242Z" fill="#4ABBC1"/>
<path d="M34.5338 71.572C34.9178 71.572 35.1578 71.308 35.1578 70.876V68.428H36.7178C38.4338 68.428 39.5138 67.3 39.5138 65.62C39.5138 64.084 38.3618 62.956 36.8018 62.956H34.5698C34.1378 62.956 33.8978 63.22 33.8978 63.58V70.876C33.8978 71.308 34.1378 71.572 34.5338 71.572ZM35.1578 67.288V64.096H36.5498C37.5818 64.096 38.2298 64.744 38.2298 65.692C38.2298 66.592 37.5578 67.288 36.5738 67.288H35.1578ZM43.2826 71.62C44.0146 71.62 44.5906 71.332 44.9866 70.744H45.0106L45.0226 71.02C45.0706 71.356 45.2506 71.572 45.6106 71.572C45.9946 71.572 46.2226 71.272 46.2226 70.888V65.716C46.2226 65.344 45.9946 65.044 45.6106 65.044C45.2506 65.044 45.0706 65.26 45.0226 65.596L45.0106 65.872H44.9866C44.5186 65.272 44.0026 64.996 43.2586 64.996C41.6146 64.996 40.4746 66.46 40.4746 68.308C40.4746 70.216 41.5906 71.62 43.2826 71.62ZM43.3786 70.504C42.3466 70.504 41.7586 69.568 41.7586 68.308C41.7586 67.084 42.3586 66.112 43.3666 66.112C44.4226 66.112 44.9866 67.072 44.9866 68.308C44.9866 69.568 44.4106 70.504 43.3786 70.504ZM50.56 71.62C52.396 71.62 53.488 70.276 53.488 68.332C53.488 66.388 52.516 65.164 50.908 65.164C50.188 65.164 49.564 65.44 49.096 65.98H49.06C49.288 64.816 49.936 64.288 51.004 64.156C51.508 64.084 52.012 64.048 52.468 63.964C52.924 63.892 53.164 63.7 53.164 63.364C53.164 63.028 52.96 62.776 52.636 62.776C52.336 62.776 52.264 62.884 51.244 63.004C49.696 63.196 49 63.628 48.46 64.492C47.884 65.44 47.692 66.7 47.692 67.924C47.692 70.204 48.7 71.62 50.56 71.62ZM50.596 70.516C49.576 70.516 48.976 69.604 48.976 68.368C48.976 67.024 49.588 66.232 50.632 66.232C51.652 66.232 52.216 66.988 52.216 68.368C52.216 69.64 51.616 70.516 50.596 70.516ZM57.5428 71.62C59.3188 71.62 60.4348 70.228 60.4348 68.308C60.4348 66.448 59.3188 64.996 57.5428 64.996C55.7548 64.996 54.6388 66.46 54.6388 68.308C54.6388 70.216 55.7548 71.62 57.5428 71.62ZM57.5428 70.504C56.5108 70.504 55.9228 69.556 55.9228 68.296C55.9228 67.024 56.5348 66.112 57.5308 66.112C58.5868 66.112 59.1628 67.072 59.1628 68.308C59.1628 69.568 58.5628 70.504 57.5428 70.504ZM63.5709 71.572C63.9549 71.572 64.1829 71.272 64.1829 70.888V66.256H65.4429C65.8029 66.256 66.0429 66.076 66.0429 65.68C66.0429 65.308 65.7909 65.116 65.4429 65.116H61.6869C61.3389 65.116 61.0749 65.308 61.0749 65.68C61.0749 66.076 61.3269 66.256 61.6869 66.256H62.9469V70.888C62.9469 71.272 63.1869 71.572 63.5709 71.572ZM69.5016 71.62C70.2336 71.62 70.8096 71.332 71.2056 70.744H71.2296L71.2416 71.02C71.2896 71.356 71.4696 71.572 71.8296 71.572C72.2136 71.572 72.4416 71.272 72.4416 70.888V65.716C72.4416 65.344 72.2136 65.044 71.8296 65.044C71.4696 65.044 71.2896 65.26 71.2416 65.596L71.2296 65.872H71.2056C70.7376 65.272 70.2216 64.996 69.4776 64.996C67.8336 64.996 66.6936 66.46 66.6936 68.308C66.6936 70.216 67.8096 71.62 69.5016 71.62ZM69.5976 70.504C68.5656 70.504 67.9776 69.568 67.9776 68.308C67.9776 67.084 68.5776 66.112 69.5856 66.112C70.6416 66.112 71.2056 67.072 71.2056 68.308C71.2056 69.568 70.6296 70.504 69.5976 70.504ZM76.9231 71.62C77.7871 71.62 78.6151 71.32 79.1071 70.948C79.3951 70.732 79.5751 70.468 79.5751 70.228C79.5751 69.916 79.3591 69.688 79.0471 69.688C78.9151 69.688 78.7591 69.76 78.5791 69.892C78.0151 70.348 77.5471 70.528 76.9711 70.528C75.9751 70.528 75.2791 69.796 75.2191 68.776H78.9871C79.4431 68.776 79.6711 68.596 79.6711 68.14C79.6711 66.496 78.6151 64.996 76.8271 64.996C75.0271 64.996 73.8871 66.58 73.8871 68.308C73.8871 70.192 75.0391 71.62 76.9231 71.62ZM75.2191 67.852C75.2791 66.808 75.9391 66.04 76.8031 66.04C77.6791 66.04 78.3391 66.82 78.3871 67.852H75.2191ZM81.3535 71.572C81.6895 71.572 81.9295 71.38 81.9895 70.876L82.5175 66.7H82.5415L83.8375 70.876C83.9935 71.368 84.1735 71.548 84.5215 71.548C84.8575 71.548 85.0495 71.404 85.2295 70.792L86.5495 66.676H86.5735L87.1135 70.924C87.1615 71.32 87.3655 71.572 87.7135 71.572C88.0975 71.572 88.3495 71.344 88.3495 70.972C88.3495 70.84 88.3375 70.72 88.2895 70.432L87.6655 65.884C87.5935 65.368 87.3295 65.044 86.7415 65.044C86.2735 65.044 85.9615 65.224 85.7815 65.788L84.5575 69.58H84.5335L83.3815 65.764C83.2375 65.296 82.9495 65.044 82.4575 65.044C81.8815 65.044 81.5455 65.344 81.4615 65.884L80.8255 70.372C80.7775 70.648 80.7535 70.864 80.7535 70.996C80.7535 71.344 80.9815 71.572 81.3535 71.572ZM95.8984 71.62C96.3664 71.62 96.8224 71.536 97.1704 71.368C97.5304 71.2 97.7704 70.96 97.7704 70.648C97.7704 70.36 97.5184 70.12 97.2544 70.12C97.1464 70.12 97.0024 70.204 96.7984 70.276C96.5824 70.372 96.2944 70.456 95.9224 70.456C94.9264 70.456 94.2904 69.484 94.2904 68.272C94.2904 67.18 94.9024 66.16 95.9584 66.16C96.3664 66.16 96.6064 66.268 96.8464 66.376C96.9784 66.448 97.0984 66.508 97.2184 66.508C97.5904 66.508 97.7944 66.232 97.7944 65.884C97.7944 65.608 97.5784 65.392 97.2544 65.248C96.9184 65.092 96.4504 64.996 95.9704 64.996C94.1824 64.996 93.0064 66.544 93.0064 68.344C93.0064 70.06 94.1464 71.62 95.8984 71.62ZM103.135 71.5H107.155C107.467 71.5 107.743 71.26 107.743 70.924C107.743 70.588 107.479 70.336 107.155 70.336H104.299L106.411 67.588C107.239 66.52 107.527 65.872 107.527 65.164C107.527 63.784 106.555 62.836 105.091 62.836C103.555 62.836 102.439 64.024 102.439 65.5C102.439 65.968 102.691 66.208 103.063 66.208C103.351 66.208 103.603 66.064 103.627 65.632C103.663 64.756 104.083 64.024 105.007 64.024C105.775 64.024 106.171 64.444 106.171 65.248C106.171 65.68 105.895 66.244 105.379 66.916L102.811 70.252C102.571 70.54 102.463 70.756 102.463 70.96C102.463 71.272 102.715 71.5 103.135 71.5ZM112.081 71.62C113.761 71.62 115.105 70.084 115.105 67.228C115.105 64.408 113.785 62.836 112.069 62.836C110.581 62.836 109.033 64.084 109.033 67.312C109.033 69.88 110.281 71.62 112.081 71.62ZM112.069 70.432C110.977 70.432 110.365 69.148 110.365 67.228C110.365 65.26 111.001 64.024 112.069 64.024C113.197 64.024 113.773 65.32 113.773 67.228C113.773 69.196 113.149 70.432 112.069 70.432ZM119.344 71.62C121.024 71.62 122.368 70.084 122.368 67.228C122.368 64.408 121.048 62.836 119.332 62.836C117.844 62.836 116.296 64.084 116.296 67.312C116.296 69.88 117.544 71.62 119.344 71.62ZM119.332 70.432C118.24 70.432 117.628 69.148 117.628 67.228C117.628 65.26 118.264 64.024 119.332 64.024C120.46 64.024 121.036 65.32 121.036 67.228C121.036 69.196 120.412 70.432 119.332 70.432ZM126.08 71.62C127.724 71.62 128.924 70.348 128.924 68.548C128.924 67.048 127.928 65.896 126.524 65.896C126.212 65.896 125.888 65.944 125.6 66.076L125.9 64.12H128.204C128.528 64.12 128.804 63.88 128.804 63.532C128.804 63.196 128.528 62.956 128.204 62.956H125.444C125.06 62.956 124.844 63.1 124.772 63.628L124.364 66.34C124.34 66.496 124.328 66.712 124.328 66.892C124.328 67.192 124.532 67.36 124.82 67.36C125.24 67.36 125.528 66.976 126.14 66.976C127.016 66.976 127.568 67.624 127.568 68.572C127.568 69.7 126.956 70.432 126.056 70.432C124.964 70.432 124.58 69.568 124.124 69.568C123.812 69.568 123.56 69.868 123.56 70.204C123.56 70.768 124.76 71.62 126.08 71.62ZM134.616 71.572C135 71.572 135.24 71.284 135.24 70.888V66.256H137.196C137.556 66.256 137.808 66.076 137.808 65.68C137.808 65.308 137.544 65.116 137.196 65.116H134.58C134.244 65.116 134.004 65.32 134.004 65.656V70.888C134.004 71.284 134.244 71.572 134.616 71.572ZM141.54 71.62C143.316 71.62 144.432 70.228 144.432 68.308C144.432 66.448 143.316 64.996 141.54 64.996C139.752 64.996 138.636 66.46 138.636 68.308C138.636 70.216 139.752 71.62 141.54 71.62ZM141.54 70.504C140.508 70.504 139.92 69.556 139.92 68.296C139.92 67.024 140.532 66.112 141.528 66.112C142.584 66.112 143.16 67.072 143.16 68.308C143.16 69.568 142.56 70.504 141.54 70.504ZM145.507 73.42C145.879 73.42 146.071 73.144 146.071 72.76V71.5H150.955V72.76C150.955 73.144 151.159 73.42 151.531 73.42C151.915 73.42 152.107 73.18 152.107 72.7V70.948C152.107 70.648 151.915 70.36 151.471 70.36H151.063V65.668C151.063 65.332 150.811 65.116 150.451 65.116H147.535C147.127 65.116 146.923 65.284 146.839 65.74L146.347 68.524C146.167 69.556 145.963 70.048 145.687 70.36H145.519C145.111 70.36 144.919 70.672 144.919 70.984V72.76C144.919 73.144 145.135 73.42 145.507 73.42ZM147.031 70.36C147.295 70 147.427 69.544 147.511 69.028L148.003 66.256H149.839V70.36H147.031ZM155.503 71.62C156.235 71.62 156.811 71.332 157.207 70.744H157.231L157.243 71.02C157.291 71.356 157.471 71.572 157.831 71.572C158.215 71.572 158.443 71.272 158.443 70.888V65.716C158.443 65.344 158.215 65.044 157.831 65.044C157.471 65.044 157.291 65.26 157.243 65.596L157.231 65.872H157.207C156.739 65.272 156.223 64.996 155.479 64.996C153.835 64.996 152.695 66.46 152.695 68.308C152.695 70.216 153.811 71.62 155.503 71.62ZM155.599 70.504C154.567 70.504 153.979 69.568 153.979 68.308C153.979 67.084 154.579 66.112 155.587 66.112C156.643 66.112 157.207 67.072 157.207 68.308C157.207 69.568 156.631 70.504 155.599 70.504Z" fill="white"/>
<defs>
<filter id="filter0_d" x="0" y="0" width="193.667" height="97.9887" filterUnits="userSpaceOnUse" color-interpolation-filters="sRGB">
<feFlood flood-opacity="0" result="BackgroundImageFix"/>
<feColorMatrix in="SourceAlpha" type="matrix" values="0 0 0 0 0 0 0 0 0 0 0 0 0 0 0 0 0 0 127 0"/>
<feOffset dy="2"/>
<feGaussianBlur stdDeviation="0.5"/>
<feColorMatrix type="matrix" values="0 0 0 0 0 0 0 0 0 0 0 0 0 0 0 0 0 0 0.25 0"/>
<feBlend mode="normal" in2="BackgroundImageFix" result="effect1_dropShadow"/>
<feBlend mode="normal" in="SourceGraphic" in2="effect1_dropShadow" result="shape"/>
</filter>
</defs>
</svg>
