<svg width="55" height="65" viewBox="0 0 55 65" fill="none" xmlns="http://www.w3.org/2000/svg">
<path d="M41.29 40.8986C42.8251 38.6068 43.8021 35.9114 44.024 33.0078H44.0723C46.8723 33.0078 49.1504 30.7298 49.1504 27.9297C49.1504 25.1296 46.8725 22.8516 44.0724 22.8516V20.7353C48.1757 19.7703 51.1451 16.1036 51.1451 11.7814C51.1451 6.70808 47.0176 2.5807 41.9443 2.5807C39.7298 2.5807 37.6456 3.35575 36.0016 4.75325C34.2396 1.84933 31.052 0 27.5685 0C24.0852 0 20.8975 1.84933 19.1354 4.75338C17.4913 3.35588 15.4073 2.58083 13.1927 2.58083C8.11927 2.58083 3.99177 6.7082 3.99177 11.7815C3.99177 16.1038 6.96133 19.7705 11.0646 20.7354V22.8516C8.2645 22.8516 5.98646 25.1296 5.98646 27.9297C5.98646 30.7298 8.2645 33.0078 11.0646 33.0078H11.1128C11.3347 35.9114 12.3118 38.6068 13.8468 40.8985C5.82967 45.7338 0.908203 54.3521 0.908203 63.7305C0.908203 64.4315 1.4767 65 2.17773 65H52.9592C53.6603 65 54.2288 64.4315 54.2288 63.7305C54.2288 54.3522 49.3072 45.7341 41.29 40.8986ZM11.0646 30.4688C9.66454 30.4688 8.52565 29.3297 8.52565 27.9297C8.52565 26.5296 9.66454 25.3906 11.0646 25.3906V30.4688ZM8.52552 62.4609H3.48078C3.74269 57.4802 5.53882 52.7882 8.52552 48.9534V62.4609ZM46.6113 27.9297C46.6113 29.3297 45.4724 30.4688 44.0724 30.4688V25.3906C45.4724 25.3906 46.6113 26.5296 46.6113 27.9297ZM12.4701 18.4041C9.08424 18.0395 6.53096 15.1924 6.53096 11.7814C6.53096 8.10812 9.51944 5.11977 13.1928 5.11977C15.0655 5.11977 16.8081 5.8877 18.0664 7.24356C17.8322 8.09377 17.7124 8.96937 17.7124 9.85626C17.7124 10.2254 17.7334 10.5987 17.7749 10.9656C17.8483 11.6137 18.3975 12.0924 19.0348 12.0924C19.0826 12.0924 19.1308 12.0897 19.1793 12.0843C19.8759 12.0054 20.3768 11.3768 20.298 10.6799C20.2672 10.4075 20.2515 10.1304 20.2515 9.85626C20.2515 9.01088 20.3964 8.17896 20.682 7.38347C20.6848 7.37534 20.6867 7.36709 20.6895 7.35896C21.7364 4.4751 24.4975 2.53906 27.5685 2.53906C30.6482 2.53906 33.4165 4.48563 34.457 7.38296C34.6138 7.81993 34.9968 8.13643 35.4555 8.20815C35.9157 8.28026 36.3756 8.09542 36.6585 7.72738C37.9317 6.07014 39.8583 5.11977 41.9444 5.11977C45.6177 5.11977 48.6062 8.10812 48.6062 11.7814C48.6062 15.1924 46.053 18.0395 42.6672 18.4041C42.0224 18.4736 41.5335 19.0178 41.5335 19.6663V22.8516H13.6038V19.6663C13.6038 19.0178 13.1149 18.4735 12.4701 18.4041ZM13.6036 31.7383V25.3906H41.5333V31.7383C41.5333 34.9954 40.4122 37.9954 38.536 40.3735C38.4592 40.4468 38.3911 40.5309 38.3331 40.625C35.7695 43.7247 31.8957 45.7031 27.5682 45.7031C23.2407 45.7031 19.3667 43.7243 16.8032 40.6242C16.7455 40.5308 16.6778 40.4469 16.6013 40.3739C14.7249 37.9959 13.6036 34.9956 13.6036 31.7383ZM44.0725 62.4609H11.0646V46.1713C12.3777 44.9396 13.8391 43.8434 15.4324 42.9104C18.1817 45.8944 22.0138 47.8664 26.2993 48.1938L26.2995 50.2386C26.2996 50.9397 26.868 51.5079 27.569 51.5079C28.27 51.5078 28.8387 50.9394 28.8385 50.2381L28.8384 48.1937C33.1235 47.8662 36.9554 45.8943 39.7046 42.9103C41.2978 43.8434 42.7594 44.9396 44.0725 46.1715V62.4609ZM46.6116 62.4609V48.9536C49.5982 52.7884 51.3943 57.4802 51.6562 62.4609H46.6116Z" fill="#5D2524"/>
</svg>
